<?xml version="1.0" encoding="UTF-8"?>
<svg xmlns="http://www.w3.org/2000/svg" version="1.1" viewBox="0 0 1502 1122">
  <defs>
    <style>
      .cls-1 {
        fill: #dbc0a5;
      }

      .cls-2 {
        fill: #606060;
        mix-blend-mode: multiply;
        opacity: .1;
      }

      .cls-3 {
        fill: #eacdb0;
      }

      .cls-4 {
        fill: #962744;
      }

      .cls-5 {
        fill: #fce0a7;
      }

      .cls-6 {
        isolation: isolate;
      }

      .cls-7 {
        fill: #fff;
      }

      .cls-8 {
        fill: #59595b;
      }

      .cls-9 {
        fill: #c33258;
      }

      .cls-10 {
        opacity: 0;
      }

      .cls-11 {
        fill: #9e6652;
      }

      .cls-12 {
        fill: #3a3029;
      }

      .cls-13 {
        fill: #b7c7c7;
      }

      .cls-14 {
        display: none;
      }

      .cls-15 {
        fill: #5e4c3e;
      }
    </style>
  </defs>
  <!-- Generator: Adobe Illustrator 28.6.0, SVG Export Plug-In . SVG Version: 1.2.0 Build 709)  -->
  <g class="cls-6">
    <g id="background" class="cls-14">
      <rect class="cls-7" width="1502" height="1122"/>
    </g>
    <g id="shadow">
      <path class="cls-2" d="M1367.7,957.3c-95.1-52.3-428-20.9-428-20.9-23.8,3.2-44.2,6.4-61.8,9.5,0,0-96.3,15.3-142.7,8.8-37.1-5.2-138.9-12.1-192.7,1.4-17.9-4.3-42.8-8.6-75.9-13.1,0,0-254.8-24-327.6,16-72.8,40,158.3,48,224.8,51,31.8,1.4,121.2-5.1,175-16.5,41.9,8,118.4,6.8,159.6,1.7,64.2-7.8,96.4.4,168.8,11.3,70.6,12.3,169.4,19.1,206.8,17.4,86.8-3.9,388.7-14.4,293.6-66.6Z"/>
    </g>
    <g id="object">
      <g>
        <path class="cls-9" d="M825.8,183.7c-70-6.1-158,34.7-178.9,99.8-21.1-65-128.6-104.8-198.6-98.5-184.7,16.7-246.9,240.9-168.3,391.4,42.3,81,103,151.8,169.2,215.4,55.4,53.2,198.4,166.1,198.8,165.7.4.4,143-112.9,198.2-166.4,66-63.8,126.4-134.8,168.5-216,78.1-150.8-4.2-375.4-188.9-391.4Z"/>
        <g class="cls-10">
          <path d="M1014.7,575.1c23.2-44.9,32.3-96.3,28.6-146.8-10.7-1.7-21.8-2.2-33.3-1.3-43.6,3.5-93.3,37.6-99.4,79.7-19.7-37.7-89.7-51-132-39.9-111.6,29.3-126.5,173.2-62.8,257.5,27.7,36.6,62.1,67.9,99.1,95.5,12-10.6,22.7-20.4,31.3-28.7,66-63.8,126.4-134.8,168.5-216Z"/>
        </g>
        <path class="cls-4" d="M1037,437.1c-43.6,3.5-93.3,37.6-99.4,79.7-19.7-37.7-89.7-51-132-39.9-111.6,29.3-126.5,173.2-62.8,257.5,34.3,45.3,78.9,82.5,126,114.6,39.5,26.9,138.8,81.4,139.1,81.1.3.2,76-84.1,104.4-122.5,33.9-45.9,63.6-95.7,81-149.9,32.3-100.6-41.3-229.8-156.3-220.6Z"/>
        <g>
          <polygon class="cls-8" points="545.6 613.1 576 777.6 574.2 956.9 544.8 959.1 519 810 441 613 545.6 613.1"/>
          <polygon class="cls-8" points="501.2 587.4 459.3 769.8 402.6 958 375.2 955.3 392.6 762.7 389.8 584.4 501.2 587.4"/>
          <polygon class="cls-12" points="570.6 956.8 590.7 964.9 589.8 976.4 548 977.3 546.4 959 570.6 956.8"/>
          <polygon class="cls-12" points="399.8 953.8 420 969.5 414.4 982.5 372.5 971.4 375.7 954.8 399.8 953.8"/>
          <g>
            <path class="cls-12" d="M558.6,344.5c-5.9,10-10,12.5-20,19.8,1.9-9.8,4-19.9,5.9-29.7,3.3,1.7,6.6,3.4,9.9,5.1,2,1,4.3,2.5,4.2,4.8Z"/>
            <path class="cls-3" d="M539.1,365.3c2.9-9.8,11.2-23.1,6.3-32.9-5.4-10.9-18.6-15.6-30.8-16.3-9.7-.6-20.6,1.4-26.3,9.3-5.5,7.6-4.1,18-2.5,27.2.7,4.3.3,10.5,2.9,14.1,3.5,5.1,11.1,7.2,11.1,7.2h0c2,.6,3,2.8,2.2,4.7l-2.3,5.2s-2.2,3.7,3.6,6.2h0c4.7.6,9.4,1.2,14.1,1.8,2.2-4.2,1.8-10.1,5.9-12.5,2.3-1.4,5.2-1,7.7-1.9,4.7-1.7,6.7-7.2,8.1-12Z"/>
          </g>
          <path class="cls-5" d="M594.2,671.2c-.8-8-1-15.8-4.1-23-3.5-8-5.1-17.6-7-26.3-3.9-18.1-7.2-36.8-8.7-55.5-2.8-25.5-6.8-50.7-9.2-76.3-1.7-17.7-2.9-35.6-6.7-52.9-3-13.5-9.1-33.7-20-41.7-3.7-2.7-8.1-3.8-12.5-4.9-12.7-3.2-25.5-7.1-38.4-9.4-16.8-3-29.4,9.2-38.7,21.9-21.7,29.5-33.7,54.7-46.8,89.9-6.8,18.4-13.5,36.8-19.5,55.5-6.8,20.8-12.9,41.9-17.8,63.2-.3,1.3-1,4-1.9,7.4,0,0-17.9,58.8,0,63.8,18,5,67.9-47.4,165.3-14.1,9.3,3.5,17.9,8.1,28,9.5,12.2,1.6,24.8,0,36.6-4.8.4-.2.9-.4,1.1-.8.3-.5.2-1.1.2-1.6Z"/>
        </g>
        <g>
          <path class="cls-11" d="M984.2,304c.3-.2.6-.4.9-.5l-.9.4c-.5-.9-1-1.7-1.6-2.6,0,0,0,0,0,0h0c-4.5-6.5-11.3-11.4-19-13.5-7.3,6.1-11.4,15.8-10.6,25.3.3,4,1.5,7.8,3.4,11.3h0s0,0,0,.1c.2.3.3.6.5.9,2.7,5,13.9,27.5,10.7,53.6-3.7,29.7,5.4,37,5.4,37,0,0,27.3,1.4,42.3-6.6,14.6-7.8-10.2-69.7-31.2-105.6Z"/>
          <g>
            <polygon class="cls-15" points="986.7 672.3 1028.9 974.4 1048 974.4 1051.4 780.8 1086.3 644.9 986.7 672.3"/>
            <polygon class="cls-12" points="1048 969 1048 979.9 1027.3 990.7 1016.9 979.9 1027.3 969 1048 969"/>
          </g>
          <g>
            <polygon class="cls-15" points="1037.2 697.7 1183 965.6 1201 958.9 1136 776.4 1120.7 636.9 1037.2 697.7"/>
            <polygon class="cls-12" points="1199 953.8 1202.9 963.9 1187.3 981.4 1173.8 974.9 1179.7 961.1 1199 953.8"/>
          </g>
          <path class="cls-13" d="M997.5,372.8c.3-.2.7-.4,1-.6,2.8-1.4,6-1.7,9.1-1.9,3.3-.2,6.4-.9,9.7-1.3,7.2-.9,14.3-1.8,21.3-3.5,58.4,23,52.1,116.4,77.7,175,27.1,62.3,55.6,124,85.5,185.1,1.7,3.5-57.5,22.9-62.8,24.3-54.2,14.2-123.4,24-179.9,20.4,11.3-96.1.6-193.7,3.7-290.4,1.1-16.9,3.4-33.8,7.6-50.3,2.9-11.5,6.7-22.7,11.7-33.4,2.2-4.6,4.4-9.3,7.4-13.4,2.5-3.6,4.4-7.7,8.2-10.1Z"/>
          <polygon class="cls-13" points="1059.1 365.1 1121.9 448.3 1196.9 530.8 1180.7 544.7 1097.7 476.1 1058 436 1027.2 383.1 1059.1 365.1"/>
          <g>
            <path class="cls-3" d="M962.9,318.4c.7-35.3,44.5-36.6,61.4-11,9.6,14.6,6.1,38.1-6,51.5.2,3.1,1.2,11.5-.7,13.9-2.1,2.6-10.4,1.9-13.6,1.7-.9,0-1.8-.1-2.6-.7-.9-.6-1.4-2.7-1.8-5-2.3.2-4.7.2-7.2-.2-10.5-1.6-19.3-9.6-23.9-19.1-4.7-9.5-5.8-20.4-5.6-31Z"/>
            <path class="cls-11" d="M1045.4,426.1c-8.2,1.2-34.4,4.9-51.4-.1,1.1.3,4.2-7.5,4.6-8.4,2-4.4,3.8-8.9,5.4-13.5,5.7-16.1,10.2-33,6.8-50.1-1.7-8.7-5-17-9.5-24.6-5.9-10-15.5-14.5-25.1-20.1-4.3-2.5-8.2-6-10-10.6-2-5.1-.8-11,1.9-15.7,4.3-7.2,10.1-11.4,18.1-13,16.2-3.1,34.6.4,47.7,10.8,15.7,12.5,23.2,33.6,27.1,52.8,1,5.1,1.8,10.4,3.5,15.4,1.8,5.3,4.6,10.2,7.2,15.2,3.8,7.4,7.3,15.1,8.5,23.3,1.2,8.2-.1,17.1-5,23.7-6.9,9.3-18.7,13.4-29.7,15Z"/>
          </g>
          <polygon class="cls-3" points="1197 531 1214 550 1197 570 1192 550 1184.4 541.5 1197 531"/>
          <polygon class="cls-13" points="996 375 963 390 902 486 792 527 800 550 926 522 983 458 996 375"/>
        </g>
        <polygon class="cls-5" points="477 381 443 386 343 446 250 431 239 453 335 493 360 494 431 455 477 381"/>
        <polygon class="cls-5" points="535 393 544 398 621 494 752 525 748 550 607 538 527 480 510 407 535 393"/>
        <polygon class="cls-1" points="793 530 772 533 761 551 771 561 798.4 545.5 793 530"/>
        <polygon class="cls-3" points="751.5 528.1 773 528 794 553 780 561 761 550 749.4 541.4 751.5 528.1"/>
        <path class="cls-12" d="M579,292.5c-1-4.1-13.6-10.8-17.5-12.2-3.9-1.4-8.2-1.8-12.2-3.1-4.3-1.3-8.3-3.6-12.8-3.8-8.5-.3-15.6,7-24.1,7.6-11.7.9-21.9-5.3-30,7.7-1.5,2.4-2.1,5.2-3.4,7.7-1.7,3.2-4.6,5.6-7,8.4-10.3,12.3-9,32.4,1.2,44.5,3.1,3.6,5.3,8.2,8.4,11.9,3.5,4.2,9.3,8.8,12.4,10.2,6.7,3,21.6-39.1,21.6-39.1,0,0,4.4.4,8.1.3,2.2.8,4.4,1.7,6.6,2.8,8.1,4.2,17.1,7.4,26.1,8.9,1.2.2,2.2-.4,3.4-.4,6.8.4,7.9,2,10.1,1,7.7-3.5,3.2-16.6,4.8-24.9,1.3-6.6,2.6-13.3,3.9-19.9.5-2.5,1-5,.3-7.5Z"/>
        <polygon class="cls-3" points="248.7 433.6 246.7 426.6 247.7 405.5 230 423 225 442 240.2 450.6 248.7 433.6"/>
      </g>
    </g>
  </g>
</svg>