<?xml version="1.0" encoding="UTF-8"?>
<svg id="_x32_3" xmlns="http://www.w3.org/2000/svg" xmlns:xlink="http://www.w3.org/1999/xlink" version="1.1" viewBox="0 0 484 495">
  <!-- Generator: Adobe Illustrator 29.3.1, SVG Export Plug-In . SVG Version: 2.1.0 Build 151)  -->
  <defs>
    <style>
      .st0 {
        fill: none;
      }

      .st1 {
        fill: #ac182f;
      }

      .st2 {
        fill: #005f55;
      }

      .st3, .st4, .st5 {
        stroke-miterlimit: 10;
      }

      .st3, .st6 {
        fill: #fff;
      }

      .st3, .st5 {
        stroke: #e60d4f;
        stroke-width: 15px;
      }

      .st4 {
        fill: #1c1c1c;
        filter: url(#drop-shadow-1);
        stroke: #fff;
        stroke-width: 16px;
      }

      .st7 {
        clip-path: url(#clippath-1);
      }

      .st8, .st9, .st10 {
        fill: #ffb700;
      }

      .st9 {
        stroke-miterlimit: 20;
        stroke-width: 1.4px;
      }

      .st9, .st10 {
        stroke: #000;
      }

      .st11 {
        fill: #fb7600;
      }

      .st12 {
        fill: #ff0019;
      }

      .st10 {
        stroke-linejoin: round;
        stroke-width: .5px;
      }

      .st13 {
        clip-path: url(#clippath);
      }

      .st5 {
        fill: #b3b2af;
      }
    </style>
    <filter id="drop-shadow-1" x="-1.5" y="2.5" width="482" height="482" filterUnits="userSpaceOnUse">
      <feOffset dx="7" dy="7"/>
      <feGaussianBlur result="blur" stdDeviation="5"/>
      <feFlood flood-color="#000" flood-opacity=".8"/>
      <feComposite in2="blur" operator="in"/>
      <feComposite in="SourceGraphic"/>
    </filter>
    <clipPath id="clippath">
      <path class="st0" d="M384.6,311.8c16.6-28.5,11.5-61.3-12.2-78.2-15.8-11.2-36.3-13-54.1-5.2,1.7-19.5-6.2-37.7-21.7-48.8-23.7-16.8-56.4-10.9-77.9,14.1-1,1-6.2,6.7-11.1,18.6-7,17.1-8.4,36.1-4.3,54.9l20.6,93.9,96.4-10.7c19.1-2.3,36.5-9.9,50.4-22.1,9.6-8.4,13.2-15.2,13.9-16.5Z"/>
    </clipPath>
    <clipPath id="clippath-1">
      <path class="st0" d="M461,327.8c-60.2,18.7-116.8,27.6-175.5,35.2-67.3,8.8-134.8,13.4-200.3,7.8,4.7-55.3-1.3-130.3-1.3-190.5,30.5,3.2,119.1-1.8,187.9-11.2,62.3-8.6,120.1-21.2,185.3-40.6,1.3,62.6,1.6,132.7,4,199.3Z"/>
    </clipPath>
  </defs>
  <rect class="st4" x="14.5" y="18.5" width="436" height="436" rx="82.2" ry="82.2"/>
  <path class="st5" d="M384.6,311.8c16.6-28.5,11.5-61.3-12.2-78.2-15.8-11.2-36.3-13-54.1-5.2,1.7-19.5-6.2-37.7-21.7-48.8-23.7-16.8-56.4-10.9-77.9,14.1-1,1-6.2,6.7-11.1,18.6-7,17.1-8.4,36.1-4.3,54.9l20.6,93.9,96.4-10.7c19.1-2.3,36.5-9.9,50.4-22.1,9.6-8.4,13.2-15.2,13.9-16.5Z"/>
  <g class="st13">
    <g class="st7">
      <g>
        <path class="st11" d="M82.9,177.5c40,1.1,80.5.1,121.7-2.9.4,67,.9,134.4,1.3,202.3-41.7,2.1-82.6,2.1-123,0,0-66.9,0-133.4,0-199.4Z"/>
        <path class="st2" d="M82.9,177.5c21.4.8,43.1.8,64.9.2.2,66.5.5,133.5.7,201-22,0-43.9-.5-65.6-1.8,0-66.9,0-133.4,0-199.4Z"/>
        <path class="st8" d="M82.9,177.5c121.7,3.3,247.5-14,375.9-52.4,1.4,68.7,2.8,137.9,4.2,207.5-129.9,36.1-257.1,50.6-380.1,44.2,0-66.9,0-133.4,0-199.4ZM97.8,194.4c0,55.2,0,110.7.1,166.5,33.5,1.2,67.3,1,101.6-.7-.3-56.5-.7-112.7-1-168.5-34,2.3-67.5,3.2-100.7,2.7Z"/>
        <path class="st1" d="M214,190.5c76.1-7.2,152.8-21.7,230.6-43.9,1.1,57.2,2.2,114.8,3.3,172.7-78.5,21-156,34.2-232.7,39.9-.4-56.6-.8-112.9-1.2-168.8Z"/>
        <g id="A">
          <path id="B" class="st10" d="M424.9,296.1s2.3,4.2,4.8,5.6c3.7,2,11.1-.2,14.3,2.3,3.9,3,0,9.3,0,9.8,0,1,.2,1.8.3,2.7,0,0-2.6.7-3.6,1.2-1.6.7-2.2,2.3-5.2,2.9-7.6,1.5-7.4-5.9-7.9-12-.4-2.3-1.4-5.1-1.9-7.3-.5-1.9-.6-5.1-.6-5.1h0Z"/>
          <path class="st10" d="M236.6,329s-2.1,4.9-4.4,7c-3.5,3.1-10.6,3.5-13.7,7-3.6,4.2.3,9.1.3,9.5,0,.9-.1,1.8-.2,2.7,0,0,2.5-.1,3.5,0,1.6.1,2.2,1.5,5.1,1,7.3-1.1,6.9-8.2,7.3-14.3.3-2.3,1.2-5.4,1.6-7.8.4-2,.5-5.2.5-5.2h0Z"/>
        </g>
        <g>
          <path class="st10" d="M422.8,181.6s2.1-5.3,4.5-7.9c3.5-3.8,10.9-5.7,14-10,3.7-5-.4-9.1-.4-9.5-.1-.9.1-1.9.2-2.8,0,0-2.5.7-3.6.8-1.6.2-2.3-1-5.2,0-7.5,2.6-7,9.7-7.4,15.9-.3,2.4-1.1,5.7-1.6,8.2-.4,2.1-.4,5.3-.4,5.3h0Z"/>
          <path class="st10" d="M235.7,216.6s-2.2-4.4-4.5-6.1c-3.5-2.5-10.6-1.6-13.6-4.6-3.6-3.5.1-9,.2-9.4,0-.9-.1-1.8-.2-2.7,0,0,2.4-.3,3.5-.5,1.5-.4,2.1-1.8,5-1.9,7.2-.2,7,6.8,7.5,12.8.4,2.2,1.2,5.1,1.7,7.4.4,1.9.5,5,.5,5h0Z"/>
        </g>
        <path id="C" class="st9" d="M381.1,310.8c.1,4.1,3.2,2.7,6.5.3.6-.7.7-.7,1.6-.5.5.1,1.8,0,2.8-.2,2.8-.6,3.9-1.7,3.9-3.7,0-.9-.7-1.7-2.5-2.7-.6-.4-1.1-.9-1.3-1.5-.4-1.5-.4-4.7,0-5.7.4-.9,1.6-1.9,2.4-2.2,2.9-1.3,3.1-4.9,3.2-7.6-4.1,3.9-7.2-1.9-7-5.8.2-3,.5-5.8,2.5-13.9,2.6-10.2,3.3-13.4,3.1-17.7-.4-7.5-2.8-10.5-7-14,3.5-3.5,5.9-7.7,6.1-11.5.3-5.4-2-8.8-7-10.2-4.4-1.3-10-.5-17.8,2.2-4.6,1.8-16.8,5.5-14.6-4-3.3,1.2-2.7,5.2-1.3,7.5-4.3-1.6-4.1-5.6-3.8-7.3.4-1.6,2.3-3.6,3.5-3.7-5.7-2.3-8.1,2.7-8.5,5.9-5.2-2.5-3.3-9.6.6-12,2-1.5,4.2-1.8,5.9-1.3,1.2.4,2.5,2.9,1.6,4.2,4.7-1.5,1.6-7.6-1.8-7.6,5.4-3.2,7.9,2.7,8,6.5.1,1.2-.8,4.6-1.9,4.9,7.4,1.7,6.2-10,4.5-13,1.1.4,1.2,0,1.8.3,5.2,1.4,5.1,7.8,3,10.4.7,0,3.4-1.2,4.2-2,2-2.1,2.3-4.8.8-7.2-.3-.5-.4-.7-.7-1.2.6.6,1,.9,1.6,1.4,1.2,1.1,2.2,2.1,3.5,4.9.8,1.6,2.6,6.6,8.3,6.1-2.2-2-1.9-5.2-3.4-7.5,1.5.9.9.6,3.6,2.8,4.4,3.6,6.3,4.6,8.8,4.6,3.5,0,6.6-2.7,6.5-5.6,0-2.3-1.7-3.4-3.6-2.3-2.8,1.9-1.9,3.7-1.5,4.5-.9.2-3.8-.5-5.6-1.5-.9-.5-3.6-2.4-6.1-4.3-7.1-5.4-9.5-6.6-14.1-7.6-7.1-1.5-14.2-.3-20.9,3.4-5.4,3-8.5,6.7-9.8,12.2-.3,1.3-.4,2.4-.3,4.1.2,2.7.9,4.3,2.5,5.7.4.3.6.5,1,.8-.3.6-.5,1-.8,1.6-1,1.9-1.2,4.5-.7,6.2.3,1,1.4,2.8,2.1,2.8,1.3-6.3,5.5-6,8.9-5.1,4.6.9,5.6.9,10-.2,3.5-.9,4.4-1.2,8.2-3.1,5.3-2.6,7.4-3.3,11-3.5,4.5-.3,8.4,1.2,9.9,3.9.6,1,.7,1.6.7,3.5,0,2,0,2.5-.7,4.1-.5,1.1-1.2,2.3-1.9,3-1.9,2-3.1,2.5-9.5,4-5.9,1.3-9.2,2.4-20.7,6.2-9.4,3.1-15.9,4-20.4,3.6.9.9,1.4.5,3,1.1.1,1-3.7,3.5-5.5,3.6-1.4,0-2.6-.4-3.8-.8.3,1.5.7,2,1.5,3.1-1.5-.4-3-1.2-4.3-1.8,0,1.1,2.4,3.7,4.3,4.3-4,.6-6.2-.6-8.3-2-.4,2.3-1.7,4.4-3.2,6.4,0-2.9-3.8-5.3-4-7.6,1.9,1.9,3.4,4.5,4.4,5.9,1.7-2.2,2.3-4,2.3-6.5,1.2,1.6,3.6,3.6,5.9,3.1-1.4-1.8-2.3-3.2-2.5-5.4,1.1.9,2.3,1.5,3.6,2.2-.1-1.1-.4-2.1-.3-3.4,1.8,2.8,7,2.2,9.4-.8-.2,0-1.1-.2-2.1-.5-1.3-.5-2.5-.5-4-.4-3.9.3-5.9,0-7.9-3.2-.7,1.5-1.3,2.4-2.1,3.8-.2-.3-.2-.5-.4-.9-.2-.3-.2-.5-.4-.9l-.6,3c-.2,1.2-.4,1.8-.6,3-.4-.2-.6-.3-1.1-.4-1.2-.5-3.6-2-4-3.4-.3.7-.4,1.1-.6,3.4-3.8.4-7.2-4.8-7.5-5.5-.1.7-.5,2.2-.9,3.3-.7,1.8-.7,2.2-.5,3,.1.4.2.6.3.9-.4-.3-.6-.4-1-.7-.6-.4-1.3-1.1-1.6-1.6-.3-.5-.7-.8-.8-.7-.1,0-.4.8-.6,1.5s-.5,1.1-.6,1.3c-.5-.3-1.4-1.3-1.5-2.1,0-.3,0-.5,0-.8.1.3.2.5.4.8.2.4.7,1.2.9,1.3.5-.3,1.1-4.3,1.6-5.1,0,1.1.7,2.7,1.5,3.7.3.3.4.5.7.8.4-1.1.6-1.6,1-2.7.5-1.5,1-3.1,1-3.7,0-.4,0-.6,0-1,2.4,3.7,4.5,6,7.5,6.6.2-1.9.4-2.9.6-4.9,1.2,2.3,3.1,4.3,5,5,.6,0,1.1-4.3.7-5.6-.2-.8-1.6-2.4-1.9-2.3-.3,1.3-.4,2.8-1.4,4-2-2.1-4.2-4.9-5.2-6-.3,2.3-.4,3.4-.7,5.6-1.6-2-5.4-3.6-6-7.2,1.3,1.7,2.7,3.9,5.5,5.7,0-.7.9-6,.9-6.9.4,1.9,3.8,6.8,5.4,7.8.6-.8,1-2.6.8-4.1,0-.8-.1-1.2-.2-1.9,1.2,1.6,3.1,5.1,4.3,5.9,1.2-.2,1.8-4.3,1.8-5.3.1.4.2.7.4,1.1.7,2.2,2.4,4,4.4,4.5,1,.3,3.9,0,4.5,0-.9-1.5-1.1-2.5-1.1-4.3,0-1.7-.4-2.4-.7-2.6-1.7-.8-2.9-2-4.1-3.5-.7-.9-1.6-2.4-1.6-2.6-.9,1.7-.7,3.6-1.3,4.3-.3,0-3.2-3.5-3.5-3.9-.2.7-1.5,4.7-1.6,4.9,0,0-.3-.2-.6-.5-2.2-1.7-3.2-2-4.6-4.2-.3.6-.3.8-.5,1.7-.2-.3-4-2.8-4.4-2.9-.2,1.7-.3,2.6-.5,4.3-3.4-1.8-6.3-5-6-6.4.7,1.3,5.5,5,5.5,5,0-2.2.1-3.2.2-5.4.5.9,2.5,2.8,3.9,3.5.4.2.6.4,1.1.6,0-2.7.2-5.6-.6-8,.8,1.1,3.9,3.7,4.2,3.4.3-1.7,0-2.9.2-4.6,1.4,1.2.8,1.2,2.2,2.1.2-1.4.3-2.1.6-3.5.2.3.3.5.5.8,1.9,1.6,3,3.1,5,4.1,1.6-2.8,1.5-5.4,1.5-8.3.9,3.1,0,6.2,1.7,8.3.6.7,3.4,2.8,5.1,3.2-.6-.7-1-2.6-.9-4.9.2-2.7-.4-4.2-.5-5.3-.7-.3-2.2-1.4-3.1-3,2.3,2.7,6.4,2.9,8.5,1.4-.4-.2-.6-.4-1-.6-.7-.4-1.3-1.2-2-2.7-.7-1.5-1.4-2.3-2.3-3-.7-.5-1.4-.9-1.5-.9s.3-.6,1-1.4c2.3-2.7,3.6-6.8,3.4-8.4-.3.5-4.3,4.8-8.2,4.8.4-2-2.5-5-4.1-5.3.8,2.4-1.2,5.9-3.4,6.3-1.3.2-2.4-.3-3.6-1.7-1.4-1.6-3-2.4-5.1-2-.7.1-1.3.2-1.9.3.6.3,1.3,1,1.3,1.8,0,.9-1.3,2.8-2.1,2.7-3-.2-6.4-2.7-9.3-.9,1,0,1.6,4.1-1.4,5.5-3.4,1.6-9.7,4.4-12.4,4.6,2.7-2.9,1.1-5.5-1.3-4.2-7,4-1.6,14,3.3,17.2-.1-1-.3-1.5-.4-2.2,1.5,1,3.8,2,5.1,2.5,0-.9.3-2,.5-2.5,1,1.8,2.6,3.3,3.7,4.4,1.9,2.2,4,4,4.3,6.9-3-2.5-6.3-2.6-9.7-.4,1.9-2.1,2-3.3-.9-1.9-2.2,1.1-4.5,1.3-6.2.6-.4-.2-.7-.3-1.1-.4.1,3.2-1,7.6-3.5,8.9,2.4,2.5,4.8-.1,5.9-3-.3,1.8-.2,3.1,0,4.6,1.4-1.3,2.6-2.7,3.3-4.5.1,1.7.2,4,1.4,4.7,0-1.2.3-4,2.2-4.9-.5,1.9-.6,3.9,1.1,3.7,0-1.3.2-1.9.7-2.5,2-1.5,3.7-.5,3.6,1.5,0,2.2-1.5,4.7-4.1,7.2-6,5.8-9.7,11.6-11.5,18.3-.9,3.4-1.1,9.3-.4,12.6,1.4,6.2,4.7,10.9,9.5,13.6,1.7.9,5.9,2.4,6.1,2.3-1-3.1-1.3-8.6-1-13,.4,2,1.1,11.6,1.8,13.4,1.7,6.6,2.2,11.3,1.8,15.2-.3,2.9-.8,4.5-1.7,5.3-.9.9-1.8,1-3.6.3-1.8-.6-3.5-.3-4.5.8-1,1.2-3,4.2-3,4.6.6.6,2.5,0,2.4-.9,0-.3.5-1.4.8-1.7-.6,2.7.3,3.1,2,2.8,3.1-.5,1.8-2.2,3.2-3-.2.4-.3,1-.3,1.4,0,1.1,1,1.4,3.5,1,1.8-.3,2.3-.5,3.5-1.3.6-.4.8-.6,1.4-1,.6.1.9.2,1.5.3,1.6.3,4.1,0,5-.7,2.2-1.6,2.3-3,.4-5-1.4-1.5-.9-2.3,2-3.7,3.6-2,5-4,4.9-7.8-2.3,3.3-5.9.5-5-2.7.4-2.3,2.1-7.1,5-11.7,2.3-3.6,5.6-15.7,6.1-17.6-.1,5.3-2.2,11.5-5.5,17.5-1.1,2-1.5,2.9-1.5,2.9,0,0,6.6-2.9,9.9-4.8,1.4-.8,4.9-2.9,7.7-4.7,6.4-4,11.4-6.8,14.3-8,4.1-1.7,9.4-2.1,12.7-1,.9.3,1.6.8,8,5.1,1.7,1.1,4.2,2.7,5.7,3.5,2.9,1.6,5.5,3.6,6.1,4.8.5,1,.6,2.1.4,8.1-.1,5.5-.3,6.4-1.4,7.6-.7.8-1,1-3.7,1.5-4.8.9-4.8,1.4-5.8,6-.2.8-.6,2.1-1,2.7,2,.2,4-1.3,4.3-3.1.2-1,.7-1.9,1.3-2.2-.7,1.7-1.1,2.8-.9,4.7,5.2-1.1,3.5-1.6,4.4-4.7h0ZM301.3,262.3c-1-1.9-.8-3.5-.8-5.7-1.6.7-1.9,1.1-3.4,2.6-.8-4.1,2-6,3.2-7.3,0,.9-3,3.2-2.8,6,1.4-1.2,3.5-3,4-3.1-.4.5-.9,5.2,0,6.5.2-.4,1.6-2.3,2.6-3.3,1.1-1,2.2-2.5,2.4-2.9.3.8,1.2,2.4,1.7,3.1,1.1-2.8,2.3-4,3.8-6.3.2,1.1.9,5.5,1.4,5.6,1.3-1.7,2.5-5.6,3.1-6-.7,3.1-2,5.2-3.1,7.9-.8-1.8-1.6-3.8-1.7-5.9-2.6,3.5-2.7,3.2-2.5,7-1.2-1.2-2-2.7-2.5-4.4-1.8,2.3-4.8,4.4-4.9,7-.2-.3-.3-.5-.5-.8ZM311.9,221.1c-1.4,0-3.4-.6-6.3-1.8-1.7-.7-2.8-.8-3.6-.1-1.4,1-.8,3,.8,2.2,1.5-.8.2-1.3,0-1.5.6-.1,1.5.2,1.5.7,0,.6-1.2,1.5-2.1,1.4-2.5-.2-1.6-3.5,1-3.9.4,0,1.5.2,2.5.6,4.1,1.7,4.7,1.8,6.9,1.7,1.2,0,2.2-.2,2.2-.2-.2-.4-1.7-1.9-3.2-2.5.8-.5,3.7-.4,6.8.2,2.5.5,3,.5,4.7,0,1.1-.3,2.5-.8,3.1-1.2.5-.3.7-.4,1.1-.7-1.4-1.2-3.3-1.4-4.8-2.1.4-.2,2.2-1,3.6-1.2,2.3-.3,6.7-4.2,7.4-4.5-.4.5-1.8,2.2-2.8,2.9-1.5,1.1-2.2,1.4-4.2,2-.9.2-1.4.4-2.3.6,1.4.7,2.7,1.3,4.1,2-6.4,4.6-7.9,3-14.7,2.2.5.5.8.8,1.3,1.4.5.5.8.8,1.3,1.4-1.5.2-3,.5-4.4.4ZM364.7,315.2c2.6.8,6.5,0,7.4-2.4.4-1.2,0-3.5-.7-4.9-.4-.7-.8-1.8-1-2.5-.3-1.4-.1-2.1,1.1-3.5,2.6-2.9,3.3-3.9,3.6-5.6.2-.9,0-2.2,0-2.2-1.1,1.4-3.6,2.2-4.8,1.5-2.4-1.8,3.2-6.4,3.9-10.6-2.4-2-5.4-3.9-8.1-6.1-3.2-2.5-8.3-2.7-12.7-1.3-.7.2-1.6.4-1.6.4,0,.4,0,.6.1.9,0,2.7,1.7,6.5,4.7,10.3,2.7,3.4,4.1,5.6,4.5,6.9.2.7.3,2.8.2,7.5-.1,6.3-.2,6.5-.8,7.3-.8,1.1-2.2,1.4-4.3,1-4.3-.7-6.3.2-7.6,6,.6.7,3.5.4,3.5-1,0-1.1.2-1.5,1-2.3-.7,1.7-.1,3.2.9,3.6,2.1.8,3.7-2.9,4.4-3.5,0,4.5,2.2,3.1,6.3.4h0ZM267.5,312.6c1.5,1.5,3.2,2.1,5.1-.3-2.9-.7-4.4-2.3-5.2-5.6,1.4,1.8,4.1,2.4,5.7,1.5,1.6-.9,1.7-1.9,1.7-3.3,0-1.4-1.3-1.9-2.1-1.8-.8.1-2,1.1-1.5,3-6-.7-4.2-6.6-1.5-9.3-1.5-1.1-2.6-2.2-3.1-5.2.6.2,1.5,1.3,3.2,1.1,1.4-.3,2.1-1.6,2.1-2.7,0-1-.5-1.7-1.4-1.6-.8,0-1.3.8-1.2,2.4-1.6-.5-2.4-1.7-2.8-3.5-1.2,1.1-2.4,1.2-2.5,1.5-.1.9-1.9,2.9-2.7,2.8.3-.5,0-1.7-.4-1.8-1.3-.3-2.1,1.1-1.6,2.7,1,2.5,4.1.4,4.7-.5-.2,2.8-1.2,4.5-2.3,5.9,2.9,3.6,3,8.3-1.7,9.8.1-1.8-.1-2.5-1.5-2.6-1.2.1-1.9,1-1.9,2.5,0,1.8,1.4,2.9,3.2,2.7,2.1-.5,2.7-1.3,4.1-2.9-1,2.7-2.7,5.5-5.2,6.6,2.1,2.1,3.8.9,5.4-.9-.5,2.5,0,3.3,1.6,5.2,1.5-2.5,1.8-3,1.7-5.6h0ZM287,302.5c1.5-1.8,2.7-3.7,3.9-5.7-5.2-4.1-7.8-10.1-8.1-15.4-3.2-3.4-9.7-9.7-10.3-10.3-.5-.4-.9-.4-1.2-.2-.3.2-.4.6-.3,1,.2.8,1.1,1.8,1.4,2.3-3.8,1.9-3.1,5-1.1,6.9-.6.1-1.3.1-1.5.2-.5,2.3-2.3,3.9-2.8,4.6,0,.8-.1,1.2.3,1.9,3.6-3.2,3.9-2.7,4.1-2.7.8,0,2.4,2.9,3.2,4.2-2.1,1.9-2.9,3.7-1.7,6.5,2.7-4,3.3-2,5.2.8,2.4,3.9,5.8,7.9,6.6,7.7.2,0,1.1-.9,2-2h0ZM265.4,287.5c.5-.3.8-.7.7-1.1,0-1.2-.4-1.4-2.1-1.1-1.4.3-2.4,0-3.7-.3-.3,0,0,1.1.4,1.7,1.3,1.6,3.1,1.9,4.6.8h0ZM269.4,280.5c-.5.7-2.6,2.5-3.4,4.1.3.5.4.7.7,1.1,1.5-1.6,2.8-2.9,2.7-5.2h0ZM265.8,283.8c.8-1.4.6-2.3-2.1-1.9-1.8.2-2.8-.4-4.3-.8,0,0-.1.5-.1,1,0,1.8,1.9,2.9,4.6,2.6,1.1-.1,1.6-.2,2-.9ZM269,278.7c-1,.6-1.9,1.7-2.9,2.5,0,.4.4.9.7,1.4,1.6-1.1,2.5-3,2.3-3.9h0ZM266.8,278c-3,.4-4.8.4-7.2-1-3.2,3.4,3.3,4.6,4.6,4.4,2.2-.2,2.8-1.7,2.6-3.4h0ZM269.1,276.3c-.9.5-1,.5-2,1.4,0,.9,0,1.2.2,1.9.9-.6,1.7-2,1.7-3.3ZM267.1,277.1c.7-.5.5-2.5,0-2.5-1.7.1-3-.3-4.1-1.2-2.3-1.8-4.9.7-3,2.9,1.3,1.5,5.4,1.9,7.1.8ZM271.1,273.9c-1.2,0-2.3.3-3.3.7.4.4.6,1.1.5,1.6,1.2-.5,1.9-1.1,2.8-2.2h0ZM270.6,271.6c-2.3.8-4.3,1.7-6.4,1.7,0,.2.5.5,1.2.6,1,.2,4.5-.4,5.5-.6,0-.6-.2-1.2-.3-1.7ZM270.1,271.1c1.5-.7,3.6-2.4,4.3-3.5.7-1.5.7-3.8-.3-4.4-2.7-1.8-4.5,2-2.9,3.7.2.2.3.3.5.5-3.7,3.2-9.6,2.9-12.4,1.4,1.1-.8,1.6-2.2,1.2-3.4-.5-.9-1-1-2.3-.9-1.5.2-2,1.5-2,3.1,0,2.3,2.2,4.2,4.8,4.8,2.6.6,7.8-.7,9.1-1.3,1.3-.6,0,0,0,0h0ZM270.9,267.6c-1.2-1.2-1.4-2.4-.8-3.9.2-20.2-3-41.8,3.1-62-16.5,11-12.8,46.2-12.5,62.8.9,2.6-.1,3.8-.8,4.2,3.4,1.1,7.2.9,11-1.1h0ZM337.1,237.2c-1.3-1.1-2.9-5.5-3.5-7.2-2.6-1.6-2.8-2.1-4.4-5.1,0,.3-1.1,2.2-1.3,2.5-1.4-.5-3.3-2.7-5.3-3.9,0,.1,0,.6-.1,1.2,0,.6-.6,1.8-.7,2.1-.6-.7-1.2-1.1-1.6-1.8,0,1.4-.3,2.2-.3,4-1.2-.6-1.6-1-3.2-1.7-.1,2.3.3,5.1,1.8,6.3,1.1.8,2.9,2,3.1,2,0,0,.4-.6.7-1.3.5-1.1.6-1.7.5-3.6,0-.9,0-1.4,0-2.4.1.5.2.7.3,1.2.4,1.3,1.1,2.5,2.8,4.2.4.4.6.6,1,1,.2-1,.3-1.5.6-2.5.2-1,.3-1.5.6-2.5.5.9.7,1.3,1.2,2.2,1.3,2.4,5,5.9,8,5.2h0ZM291,234.1c-2.3-.1-5.2.7-7.4-.5,0,1.8,1.6,3.3,2.7,3.9,1.3.7,4.2.3,6.3-.8,1.8-.9,2.6-.8,2.8.2,0,.3-.2.8-.2.8,2.6-1.1,4.6-.6,6.7.2-2-5.3-9-4-10.9-3.9h0Z"/>
        <path class="st8" d="M381.1,310.8c.1,4.1,3.2,2.7,6.5.3.6-.7.7-.7,1.6-.5.5.1,1.8,0,2.8-.2,2.8-.6,3.9-1.7,3.9-3.7,0-.9-.7-1.7-2.5-2.7-.6-.4-1.1-.9-1.3-1.5-.4-1.5-.4-4.7,0-5.7.4-.9,1.6-1.9,2.4-2.2,2.9-1.3,3.1-4.9,3.2-7.6-4.1,3.9-7.2-1.9-7-5.8.2-3,.5-5.8,2.5-13.9,2.6-10.2,3.3-13.4,3.1-17.7-.4-7.5-2.8-10.5-7-14,3.5-3.5,5.9-7.7,6.1-11.5.3-5.4-2-8.8-7-10.2-4.4-1.3-10-.5-17.8,2.2-4.6,1.8-16.8,5.5-14.6-4-3.3,1.2-2.7,5.2-1.3,7.5-4.3-1.6-4.1-5.6-3.8-7.3.4-1.6,2.3-3.6,3.5-3.7-5.7-2.3-8.1,2.7-8.5,5.9-5.2-2.5-3.3-9.6.6-12,2-1.5,4.2-1.8,5.9-1.3,1.2.4,2.5,2.9,1.6,4.2,4.7-1.5,1.6-7.6-1.8-7.6,5.4-3.2,7.9,2.7,8,6.5.1,1.2-.8,4.6-1.9,4.9,7.4,1.7,6.2-10,4.5-13,1.1.4,1.2,0,1.8.3,5.2,1.4,5.1,7.8,3,10.4.7,0,3.4-1.2,4.2-2,2-2.1,2.3-4.8.8-7.2-.3-.5-.4-.7-.7-1.2.6.6,1,.9,1.6,1.4,1.2,1.1,2.2,2.1,3.5,4.9.8,1.6,2.6,6.6,8.3,6.1-2.2-2-1.9-5.2-3.4-7.5,1.5.9.9.6,3.6,2.8,4.4,3.6,6.3,4.6,8.8,4.6,3.5,0,6.6-2.7,6.5-5.6,0-2.3-1.7-3.4-3.6-2.3-2.8,1.9-1.9,3.7-1.5,4.5-.9.2-3.8-.5-5.6-1.5-.9-.5-3.6-2.4-6.1-4.3-7.1-5.4-9.5-6.6-14.1-7.6-7.1-1.5-14.2-.3-20.9,3.4-5.4,3-8.5,6.7-9.8,12.2-.3,1.3-.4,2.4-.3,4.1.2,2.7.9,4.3,2.5,5.7.4.3.6.5,1,.8-.3.6-.5,1-.8,1.6-1,1.9-1.2,4.5-.7,6.2.3,1,1.4,2.8,2.1,2.8,1.3-6.3,5.5-6,8.9-5.1,4.6.9,5.6.9,10-.2,3.5-.9,4.4-1.2,8.2-3.1,5.3-2.6,7.4-3.3,11-3.5,4.5-.3,8.4,1.2,9.9,3.9.6,1,.7,1.6.7,3.5,0,2,0,2.5-.7,4.1-.5,1.1-1.2,2.3-1.9,3-1.9,2-3.1,2.5-9.5,4-5.9,1.3-9.2,2.4-20.7,6.2-9.4,3.1-15.9,4-20.4,3.6.9.9,1.4.5,3,1.1.1,1-3.7,3.5-5.5,3.6-1.4,0-2.6-.4-3.8-.8.3,1.5.7,2,1.5,3.1-1.5-.4-3-1.2-4.3-1.8,0,1.1,2.4,3.7,4.3,4.3-4,.6-6.2-.6-8.3-2-.4,2.3-1.7,4.4-3.2,6.4,0-2.9-3.8-5.3-4-7.6,1.9,1.9,3.4,4.5,4.4,5.9,1.7-2.2,2.3-4,2.3-6.5,1.2,1.6,3.6,3.6,5.9,3.1-1.4-1.8-2.3-3.2-2.5-5.4,1.1.9,2.3,1.5,3.6,2.2-.1-1.1-.4-2.1-.3-3.4,1.8,2.8,7,2.2,9.4-.8-.2,0-1.1-.2-2.1-.5-1.3-.5-2.5-.5-4-.4-3.9.3-5.9,0-7.9-3.2-.7,1.5-1.3,2.4-2.1,3.8-.2-.3-.2-.5-.4-.9-.2-.3-.2-.5-.4-.9l-.6,3c-.2,1.2-.4,1.8-.6,3-.4-.2-.6-.3-1.1-.4-1.2-.5-3.6-2-4-3.4-.3.7-.4,1.1-.6,3.4-3.8.4-7.2-4.8-7.5-5.5-.1.7-.5,2.2-.9,3.3-.7,1.8-.7,2.2-.5,3,.1.4.2.6.3.9-.4-.3-.6-.4-1-.7-.6-.4-1.3-1.1-1.6-1.6-.3-.5-.7-.8-.8-.7-.1,0-.4.8-.6,1.5s-.5,1.1-.6,1.3c-.5-.3-1.4-1.3-1.5-2.1,0-.3,0-.5,0-.8.1.3.2.5.4.8.2.4.7,1.2.9,1.3.5-.3,1.1-4.3,1.6-5.1,0,1.1.7,2.7,1.5,3.7.3.3.4.5.7.8.4-1.1.6-1.6,1-2.7.5-1.5,1-3.1,1-3.7,0-.4,0-.6,0-1,2.4,3.7,4.5,6,7.5,6.6.2-1.9.4-2.9.6-4.9,1.2,2.3,3.1,4.3,5,5,.6,0,1.1-4.3.7-5.6-.2-.8-1.6-2.4-1.9-2.3-.3,1.3-.4,2.8-1.4,4-2-2.1-4.2-4.9-5.2-6-.3,2.3-.4,3.4-.7,5.6-1.6-2-5.4-3.6-6-7.2,1.3,1.7,2.7,3.9,5.5,5.7,0-.7.9-6,.9-6.9.4,1.9,3.8,6.8,5.4,7.8.6-.8,1-2.6.8-4.1,0-.8-.1-1.2-.2-1.9,1.2,1.6,3.1,5.1,4.3,5.9,1.2-.2,1.8-4.3,1.8-5.3.1.4.2.7.4,1.1.7,2.2,2.4,4,4.4,4.5,1,.3,3.9,0,4.5,0-.9-1.5-1.1-2.5-1.1-4.3,0-1.7-.4-2.4-.7-2.6-1.7-.8-2.9-2-4.1-3.5-.7-.9-1.6-2.4-1.6-2.6-.9,1.7-.7,3.6-1.3,4.3-.3,0-3.2-3.5-3.5-3.9-.2.7-1.5,4.7-1.6,4.9,0,0-.3-.2-.6-.5-2.2-1.7-3.2-2-4.6-4.2-.3.6-.3.8-.5,1.7-.2-.3-4-2.8-4.4-2.9-.2,1.7-.3,2.6-.5,4.3-3.4-1.8-6.3-5-6-6.4.7,1.3,5.5,5,5.5,5,0-2.2.1-3.2.2-5.4.5.9,2.5,2.8,3.9,3.5.4.2.6.4,1.1.6,0-2.7.2-5.6-.6-8,.8,1.1,3.9,3.7,4.2,3.4.3-1.7,0-2.9.2-4.6,1.4,1.2.8,1.2,2.2,2.1.2-1.4.3-2.1.6-3.5.2.3.3.5.5.8,1.9,1.6,3,3.1,5,4.1,1.6-2.8,1.5-5.4,1.5-8.3.9,3.1,0,6.2,1.7,8.3.6.7,3.4,2.8,5.1,3.2-.6-.7-1-2.6-.9-4.9.2-2.7-.4-4.2-.5-5.3-.7-.3-2.2-1.4-3.1-3,2.3,2.7,6.4,2.9,8.5,1.4-.4-.2-.6-.4-1-.6-.7-.4-1.3-1.2-2-2.7-.7-1.5-1.4-2.3-2.3-3-.7-.5-1.4-.9-1.5-.9s.3-.6,1-1.4c2.3-2.7,3.6-6.8,3.4-8.4-.3.5-4.3,4.8-8.2,4.8.4-2-2.5-5-4.1-5.3.8,2.4-1.2,5.9-3.4,6.3-1.3.2-2.4-.3-3.6-1.7-1.4-1.6-3-2.4-5.1-2-.7.1-1.3.2-1.9.3.6.3,1.3,1,1.3,1.8,0,.9-1.3,2.8-2.1,2.7-3-.2-6.4-2.7-9.3-.9,1,0,1.6,4.1-1.4,5.5-3.4,1.6-9.7,4.4-12.4,4.6,2.7-2.9,1.1-5.5-1.3-4.2-7,4-1.6,14,3.3,17.2-.1-1-.3-1.5-.4-2.2,1.5,1,3.8,2,5.1,2.5,0-.9.3-2,.5-2.5,1,1.8,2.6,3.3,3.7,4.4,1.9,2.2,4,4,4.3,6.9-3-2.5-6.3-2.6-9.7-.4,1.9-2.1,2-3.3-.9-1.9-2.2,1.1-4.5,1.3-6.2.6-.4-.2-.7-.3-1.1-.4.1,3.2-1,7.6-3.5,8.9,2.4,2.5,4.8-.1,5.9-3-.3,1.8-.2,3.1,0,4.6,1.4-1.3,2.6-2.7,3.3-4.5.1,1.7.2,4,1.4,4.7,0-1.2.3-4,2.2-4.9-.5,1.9-.6,3.9,1.1,3.7,0-1.3.2-1.9.7-2.5,2-1.5,3.7-.5,3.6,1.5,0,2.2-1.5,4.7-4.1,7.2-6,5.8-9.7,11.6-11.5,18.3-.9,3.4-1.1,9.3-.4,12.6,1.4,6.2,4.7,10.9,9.5,13.6,1.7.9,5.9,2.4,6.1,2.3-1-3.1-1.3-8.6-1-13,.4,2,1.1,11.6,1.8,13.4,1.7,6.6,2.2,11.3,1.8,15.2-.3,2.9-.8,4.5-1.7,5.3-.9.9-1.8,1-3.6.3-1.8-.6-3.5-.3-4.5.8-1,1.2-3,4.2-3,4.6.6.6,2.5,0,2.4-.9,0-.3.5-1.4.8-1.7-.6,2.7.3,3.1,2,2.8,3.1-.5,1.8-2.2,3.2-3-.2.4-.3,1-.3,1.4,0,1.1,1,1.4,3.5,1,1.8-.3,2.3-.5,3.5-1.3.6-.4.8-.6,1.4-1,.6.1.9.2,1.5.3,1.6.3,4.1,0,5-.7,2.2-1.6,2.3-3,.4-5-1.4-1.5-.9-2.3,2-3.7,3.6-2,5-4,4.9-7.8-2.3,3.3-5.9.5-5-2.7.4-2.3,2.1-7.1,5-11.7,2.3-3.6,5.6-15.7,6.1-17.6-.1,5.3-2.2,11.5-5.5,17.5-1.1,2-1.5,2.9-1.5,2.9,0,0,6.6-2.9,9.9-4.8,1.4-.8,4.9-2.9,7.7-4.7,6.4-4,11.4-6.8,14.3-8,4.1-1.7,9.4-2.1,12.7-1,.9.3,1.6.8,8,5.1,1.7,1.1,4.2,2.7,5.7,3.5,2.9,1.6,5.5,3.6,6.1,4.8.5,1,.6,2.1.4,8.1-.1,5.5-.3,6.4-1.4,7.6-.7.8-1,1-3.7,1.5-4.8.9-4.8,1.4-5.8,6-.2.8-.6,2.1-1,2.7,2,.2,4-1.3,4.3-3.1.2-1,.7-1.9,1.3-2.2-.7,1.7-1.1,2.8-.9,4.7,5.2-1.1,3.5-1.6,4.4-4.7h0ZM301.3,262.3c-1-1.9-.8-3.5-.8-5.7-1.6.7-1.9,1.1-3.4,2.6-.8-4.1,2-6,3.2-7.3,0,.9-3,3.2-2.8,6,1.4-1.2,3.5-3,4-3.1-.4.5-.9,5.2,0,6.5.2-.4,1.6-2.3,2.6-3.3,1.1-1,2.2-2.5,2.4-2.9.3.8,1.2,2.4,1.7,3.1,1.1-2.8,2.3-4,3.8-6.3.2,1.1.9,5.5,1.4,5.6,1.3-1.7,2.5-5.6,3.1-6-.7,3.1-2,5.2-3.1,7.9-.8-1.8-1.6-3.8-1.7-5.9-2.6,3.5-2.7,3.2-2.5,7-1.2-1.2-2-2.7-2.5-4.4-1.8,2.3-4.8,4.4-4.9,7-.2-.3-.3-.5-.5-.8ZM311.9,221.1c-1.4,0-3.4-.6-6.3-1.8-1.7-.7-2.8-.8-3.6-.1-1.4,1-.8,3,.8,2.2,1.5-.8.2-1.3,0-1.5.6-.1,1.5.2,1.5.7,0,.6-1.2,1.5-2.1,1.4-2.5-.2-1.6-3.5,1-3.9.4,0,1.5.2,2.5.6,4.1,1.7,4.7,1.8,6.9,1.7,1.2,0,2.2-.2,2.2-.2-.2-.4-1.7-1.9-3.2-2.5.8-.5,3.7-.4,6.8.2,2.5.5,3,.5,4.7,0,1.1-.3,2.5-.8,3.1-1.2.5-.3.7-.4,1.1-.7-1.4-1.2-3.3-1.4-4.8-2.1.4-.2,2.2-1,3.6-1.2,2.3-.3,6.7-4.2,7.4-4.5-.4.5-1.8,2.2-2.8,2.9-1.5,1.1-2.2,1.4-4.2,2-.9.2-1.4.4-2.3.6,1.4.7,2.7,1.3,4.1,2-6.4,4.6-7.9,3-14.7,2.2.5.5.8.8,1.3,1.4.5.5.8.8,1.3,1.4-1.5.2-3,.5-4.4.4ZM364.7,315.2c2.6.8,6.5,0,7.4-2.4.4-1.2,0-3.5-.7-4.9-.4-.7-.8-1.8-1-2.5-.3-1.4-.1-2.1,1.1-3.5,2.6-2.9,3.3-3.9,3.6-5.6.2-.9,0-2.2,0-2.2-1.1,1.4-3.6,2.2-4.8,1.5-2.4-1.8,3.2-6.4,3.9-10.6-2.4-2-5.4-3.9-8.1-6.1-3.2-2.5-8.3-2.7-12.7-1.3-.7.2-1.6.4-1.6.4,0,.4,0,.6.1.9,0,2.7,1.7,6.5,4.7,10.3,2.7,3.4,4.1,5.6,4.5,6.9.2.7.3,2.8.2,7.5-.1,6.3-.2,6.5-.8,7.3-.8,1.1-2.2,1.4-4.3,1-4.3-.7-6.3.2-7.6,6,.6.7,3.5.4,3.5-1,0-1.1.2-1.5,1-2.3-.7,1.7-.1,3.2.9,3.6,2.1.8,3.7-2.9,4.4-3.5,0,4.5,2.2,3.1,6.3.4h0ZM267.5,312.6c1.5,1.5,3.2,2.1,5.1-.3-2.9-.7-4.4-2.3-5.2-5.6,1.4,1.8,4.1,2.4,5.7,1.5,1.6-.9,1.7-1.9,1.7-3.3,0-1.4-1.3-1.9-2.1-1.8-.8.1-2,1.1-1.5,3-6-.7-4.2-6.6-1.5-9.3-1.5-1.1-2.6-2.2-3.1-5.2.6.2,1.5,1.3,3.2,1.1,1.4-.3,2.1-1.6,2.1-2.7,0-1-.5-1.7-1.4-1.6-.8,0-1.3.8-1.2,2.4-1.6-.5-2.4-1.7-2.8-3.5-1.2,1.1-2.4,1.2-2.5,1.5-.1.9-1.9,2.9-2.7,2.8.3-.5,0-1.7-.4-1.8-1.3-.3-2.1,1.1-1.6,2.7,1,2.5,4.1.4,4.7-.5-.2,2.8-1.2,4.5-2.3,5.9,2.9,3.6,3,8.3-1.7,9.8.1-1.8-.1-2.5-1.5-2.6-1.2.1-1.9,1-1.9,2.5,0,1.8,1.4,2.9,3.2,2.7,2.1-.5,2.7-1.3,4.1-2.9-1,2.7-2.7,5.5-5.2,6.6,2.1,2.1,3.8.9,5.4-.9-.5,2.5,0,3.3,1.6,5.2,1.5-2.5,1.8-3,1.7-5.6h0ZM287,302.5c1.5-1.8,2.7-3.7,3.9-5.7-5.2-4.1-7.8-10.1-8.1-15.4-3.2-3.4-9.7-9.7-10.3-10.3-.5-.4-.9-.4-1.2-.2-.3.2-.4.6-.3,1,.2.8,1.1,1.8,1.4,2.3-3.8,1.9-3.1,5-1.1,6.9-.6.1-1.3.1-1.5.2-.5,2.3-2.3,3.9-2.8,4.6,0,.8-.1,1.2.3,1.9,3.6-3.2,3.9-2.7,4.1-2.7.8,0,2.4,2.9,3.2,4.2-2.1,1.9-2.9,3.7-1.7,6.5,2.7-4,3.3-2,5.2.8,2.4,3.9,5.8,7.9,6.6,7.7.2,0,1.1-.9,2-2h0ZM265.4,287.5c.5-.3.8-.7.7-1.1,0-1.2-.4-1.4-2.1-1.1-1.4.3-2.4,0-3.7-.3-.3,0,0,1.1.4,1.7,1.3,1.6,3.1,1.9,4.6.8h0ZM269.4,280.5c-.5.7-2.6,2.5-3.4,4.1.3.5.4.7.7,1.1,1.5-1.6,2.8-2.9,2.7-5.2h0ZM265.8,283.8c.8-1.4.6-2.3-2.1-1.9-1.8.2-2.8-.4-4.3-.8,0,0-.1.5-.1,1,0,1.8,1.9,2.9,4.6,2.6,1.1-.1,1.6-.2,2-.9ZM269,278.7c-1,.6-1.9,1.7-2.9,2.5,0,.4.4.9.7,1.4,1.6-1.1,2.5-3,2.3-3.9h0ZM266.8,278c-3,.4-4.8.4-7.2-1-3.2,3.4,3.3,4.6,4.6,4.4,2.2-.2,2.8-1.7,2.6-3.4h0ZM269.1,276.3c-.9.5-1,.5-2,1.4,0,.9,0,1.2.2,1.9.9-.6,1.7-2,1.7-3.3ZM267.1,277.1c.7-.5.5-2.5,0-2.5-1.7.1-3-.3-4.1-1.2-2.3-1.8-4.9.7-3,2.9,1.3,1.5,5.4,1.9,7.1.8ZM271.1,273.9c-1.2,0-2.3.3-3.3.7.4.4.6,1.1.5,1.6,1.2-.5,1.9-1.1,2.8-2.2h0ZM270.6,271.6c-2.3.8-4.3,1.7-6.4,1.7,0,.2.5.5,1.2.6,1,.2,4.5-.4,5.5-.6,0-.6-.2-1.2-.3-1.7ZM270.1,271.1c1.5-.7,3.6-2.4,4.3-3.5.7-1.5.7-3.8-.3-4.4-2.7-1.8-4.5,2-2.9,3.7.2.2.3.3.5.5-3.7,3.2-9.6,2.9-12.4,1.4,1.1-.8,1.6-2.2,1.2-3.4-.5-.9-1-1-2.3-.9-1.5.2-2,1.5-2,3.1,0,2.3,2.2,4.2,4.8,4.8,2.6.6,7.8-.7,9.1-1.3,1.3-.6,0,0,0,0h0ZM270.9,267.6c-1.2-1.2-1.4-2.4-.8-3.9.2-20.2-3-41.8,3.1-62-16.5,11-12.8,46.2-12.5,62.8.9,2.6-.1,3.8-.8,4.2,3.4,1.1,7.2.9,11-1.1h0ZM337.1,237.2c-1.3-1.1-2.9-5.5-3.5-7.2-2.6-1.6-2.8-2.1-4.4-5.1,0,.3-1.1,2.2-1.3,2.5-1.4-.5-3.3-2.7-5.3-3.9,0,.1,0,.6-.1,1.2,0,.6-.6,1.8-.7,2.1-.6-.7-1.2-1.1-1.6-1.8,0,1.4-.3,2.2-.3,4-1.2-.6-1.6-1-3.2-1.7-.1,2.3.3,5.1,1.8,6.3,1.1.8,2.9,2,3.1,2,0,0,.4-.6.7-1.3.5-1.1.6-1.7.5-3.6,0-.9,0-1.4,0-2.4.1.5.2.7.3,1.2.4,1.3,1.1,2.5,2.8,4.2.4.4.6.6,1,1,.2-1,.3-1.5.6-2.5.2-1,.3-1.5.6-2.5.5.9.7,1.3,1.2,2.2,1.3,2.4,5,5.9,8,5.2h0ZM291,234.1c-2.3-.1-5.2.7-7.4-.5,0,1.8,1.6,3.3,2.7,3.9,1.3.7,4.2.3,6.3-.8,1.8-.9,2.6-.8,2.8.2,0,.3-.2.8-.2.8,2.6-1.1,4.6-.6,6.7.2-2-5.3-9-4-10.9-3.9h0Z"/>
      </g>
    </g>
  </g>
  <path class="st3" d="M59.8,247.4c-17.8-34-10.2-72,18.3-90.4,19-12.3,42.9-13.3,63.2-3.2-1-22.8,9.2-43.6,27.8-55.6,28.5-18.4,66.2-9.8,89.9,20.5,1.1,1.3,6.9,8.1,11.9,22.2,7.2,20.3,8,42.4,2.2,64.1l-28.8,108.2-111.7-17.4c-22.1-3.6-42-13.4-57.5-28.3-10.7-10.3-14.6-18.4-15.3-20Z"/>
  <path class="st6" d="M59.8,247.4c-17.8-34-10.2-72,18.3-90.4,19-12.3,42.9-13.3,63.2-3.2-1-22.8,9.2-43.6,27.8-55.6,28.5-18.4,66.2-9.8,89.9,20.5,1.1,1.3,6.9,8.1,11.9,22.2,7.2,20.3,8,42.4,2.2,64.1l-28.8,108.2-111.7-17.4c-22.1-3.6-42-13.4-57.5-28.3-10.7-10.3-14.6-18.4-15.3-20Z"/>
  <circle class="st12" cx="177.6" cy="214.7" r="39.4"/>
</svg>