<?xml version="1.0" encoding="UTF-8"?>
<svg xmlns="http://www.w3.org/2000/svg" xmlns:xlink="http://www.w3.org/1999/xlink" version="1.1" viewBox="0 0 693 651">
  <defs>
    <style>
      .cls-1 {
        fill: none;
      }

      .cls-2 {
        fill: #ac182f;
      }

      .cls-3 {
        fill: #005f55;
      }

      .cls-4 {
        clip-path: url(#clippath-1);
      }

      .cls-5, .cls-6 {
        fill: #fff;
      }

      .cls-7, .cls-8, .cls-9 {
        fill: #ffb700;
      }

      .cls-8 {
        stroke-miterlimit: 20;
        stroke-width: 1.4px;
      }

      .cls-8, .cls-9 {
        stroke: #000;
      }

      .cls-10 {
        fill: #fb7600;
      }

      .cls-11 {
        fill: #ff0019;
      }

      .cls-12 {
        display: none;
        fill: #1c1c1c;
      }

      .cls-13 {
        fill: #b3b2af;
      }

      .cls-13, .cls-6 {
        stroke: #fff;
        stroke-miterlimit: 10;
        stroke-width: 15px;
      }

      .cls-9 {
        stroke-linejoin: round;
        stroke-width: .5px;
      }

      .cls-14 {
        clip-path: url(#clippath);
      }
    </style>
    <clipPath id="clippath">
      <path class="cls-1" d="M514.6,237.8c16.6-28.5,11.5-61.3-12.2-78.2-15.8-11.2-36.3-13-54.1-5.2,1.7-19.5-6.2-37.7-21.7-48.8-23.7-16.8-56.4-10.9-77.9,14.1-1,1-6.2,6.7-11.1,18.6-7,17.1-8.4,36.1-4.3,54.9l20.6,93.9,96.4-10.7c19.1-2.3,36.5-9.9,50.4-22.1,9.6-8.4,13.2-15.2,13.9-16.5Z"/>
    </clipPath>
    <clipPath id="clippath-1">
      <path class="cls-1" d="M591,253.8c-60.2,18.7-116.8,27.6-175.5,35.2-67.3,8.8-134.8,13.4-200.3,7.8,4.7-55.3-1.3-130.3-1.3-190.5,30.5,3.2,119.1-1.8,187.9-11.2,62.3-8.6,120.1-21.2,185.3-40.6,1.3,62.6,1.6,132.7,4,199.3Z"/>
    </clipPath>
  </defs>
  <!-- Generator: Adobe Illustrator 28.6.0, SVG Export Plug-In . SVG Version: 1.2.0 Build 709)  -->
  <g>
    <g id="_x32_3">
      <rect class="cls-12" x="-634.5" y="-335.5" width="2132" height="1343"/>
      <path class="cls-13" d="M514.6,237.8c16.6-28.5,11.5-61.3-12.2-78.2-15.8-11.2-36.3-13-54.1-5.2,1.7-19.5-6.2-37.7-21.7-48.8-23.7-16.8-56.4-10.9-77.9,14.1-1,1-6.2,6.7-11.1,18.6-7,17.1-8.4,36.1-4.3,54.9l20.6,93.9,96.4-10.7c19.1-2.3,36.5-9.9,50.4-22.1,9.6-8.4,13.2-15.2,13.9-16.5Z"/>
      <g class="cls-14">
        <g class="cls-4">
          <g>
            <path class="cls-10" d="M212.9,103.5c40,1.1,80.5.1,121.7-2.9.4,67,.9,134.4,1.3,202.3-41.7,2.1-82.6,2.1-123,0,0-66.9,0-133.4,0-199.4Z"/>
            <path class="cls-3" d="M212.9,103.5c21.4.8,43.1.8,64.9.2.2,66.5.5,133.5.7,201-22,0-43.9-.5-65.6-1.8,0-66.9,0-133.4,0-199.4Z"/>
            <path class="cls-7" d="M212.9,103.5c121.7,3.3,247.5-14,375.9-52.4,1.4,68.7,2.8,137.9,4.2,207.5-129.9,36.1-257.1,50.6-380.1,44.2,0-66.9,0-133.4,0-199.4ZM227.8,120.4c0,55.2,0,110.7.1,166.5,33.5,1.2,67.3,1,101.6-.7-.3-56.5-.7-112.7-1-168.5-34,2.3-67.5,3.2-100.7,2.7Z"/>
            <path class="cls-2" d="M344,116.5c76.1-7.2,152.8-21.7,230.6-43.9,1.1,57.2,2.2,114.8,3.3,172.7-78.5,21-156,34.2-232.7,39.9-.4-56.6-.8-112.9-1.2-168.8Z"/>
            <g id="A">
              <path id="B" class="cls-9" d="M554.9,222.1s2.3,4.2,4.8,5.6c3.7,2,11.1-.2,14.3,2.3,3.9,3,0,9.3,0,9.8,0,1,.2,1.8.3,2.7,0,0-2.6.7-3.6,1.2-1.6.7-2.2,2.3-5.2,2.9-7.6,1.5-7.4-5.9-7.9-12-.4-2.3-1.4-5.1-1.9-7.3-.5-1.9-.6-5.1-.6-5.1h0Z"/>
              <path class="cls-9" d="M366.6,255s-2.1,4.9-4.4,7c-3.5,3.1-10.6,3.5-13.7,7-3.6,4.2.3,9.1.3,9.5,0,.9-.1,1.8-.2,2.7,0,0,2.5-.1,3.5,0,1.6.1,2.2,1.5,5.1,1,7.3-1.1,6.9-8.2,7.3-14.3.3-2.3,1.2-5.4,1.6-7.8.4-2,.5-5.2.5-5.2h0Z"/>
            </g>
            <g>
              <path class="cls-9" d="M552.8,107.6s2.1-5.3,4.5-7.9c3.5-3.8,10.9-5.7,14-10,3.7-5-.4-9.1-.4-9.5-.1-.9.1-1.9.2-2.8,0,0-2.5.7-3.6.8-1.6.2-2.3-1-5.2,0-7.5,2.6-7,9.7-7.4,15.9-.3,2.4-1.1,5.7-1.6,8.2-.4,2.1-.4,5.3-.4,5.3h0Z"/>
              <path class="cls-9" d="M365.7,142.6s-2.2-4.4-4.5-6.1c-3.5-2.5-10.6-1.6-13.6-4.6-3.6-3.5.1-9,.2-9.4,0-.9-.1-1.8-.2-2.7,0,0,2.4-.3,3.5-.5,1.5-.4,2.1-1.8,5-1.9,7.2-.2,7,6.8,7.5,12.8.4,2.2,1.2,5.1,1.7,7.4.4,1.9.5,5,.5,5h0Z"/>
            </g>
            <path id="C" class="cls-8" d="M511.1,236.8c.1,4.1,3.2,2.7,6.5.3.6-.7.7-.7,1.6-.5.5.1,1.8,0,2.8-.2,2.8-.6,3.9-1.7,3.9-3.7,0-.9-.7-1.7-2.5-2.7-.6-.4-1.1-.9-1.3-1.5-.4-1.5-.4-4.7,0-5.7.4-.9,1.6-1.9,2.4-2.2,2.9-1.3,3.1-4.9,3.2-7.6-4.1,3.9-7.2-1.9-7-5.8.2-3,.5-5.8,2.5-13.9,2.6-10.2,3.3-13.4,3.1-17.7-.4-7.5-2.8-10.5-7-14,3.5-3.5,5.9-7.7,6.1-11.5.3-5.4-2-8.8-7-10.2-4.4-1.3-10-.5-17.8,2.2-4.6,1.8-16.8,5.5-14.6-4-3.3,1.2-2.7,5.2-1.3,7.5-4.3-1.6-4.1-5.6-3.8-7.3.4-1.6,2.3-3.6,3.5-3.7-5.7-2.3-8.1,2.7-8.5,5.9-5.2-2.5-3.3-9.6.6-12,2-1.5,4.2-1.8,5.9-1.3,1.2.4,2.5,2.9,1.6,4.2,4.7-1.5,1.6-7.6-1.8-7.6,5.4-3.2,7.9,2.7,8,6.5.1,1.2-.8,4.6-1.9,4.9,7.4,1.7,6.2-10,4.5-13,1.1.4,1.2,0,1.8.3,5.2,1.4,5.1,7.8,3,10.4.7,0,3.4-1.2,4.2-2,2-2.1,2.3-4.8.8-7.2-.3-.5-.4-.7-.7-1.2.6.6,1,.9,1.6,1.4,1.2,1.1,2.2,2.1,3.5,4.9.8,1.6,2.6,6.6,8.3,6.1-2.2-2-1.9-5.2-3.4-7.5,1.5.9.9.6,3.6,2.8,4.4,3.6,6.3,4.6,8.8,4.6,3.5,0,6.6-2.7,6.5-5.6,0-2.3-1.7-3.4-3.6-2.3-2.8,1.9-1.9,3.7-1.5,4.5-.9.2-3.8-.5-5.6-1.5-.9-.5-3.6-2.4-6.1-4.3-7.1-5.4-9.5-6.6-14.1-7.6-7.1-1.5-14.2-.3-20.9,3.4-5.4,3-8.5,6.7-9.8,12.2-.3,1.3-.4,2.4-.3,4.1.2,2.7.9,4.3,2.5,5.7.4.3.6.5,1,.8-.3.6-.5,1-.8,1.6-1,1.9-1.2,4.5-.7,6.2.3,1,1.4,2.8,2.1,2.8,1.3-6.3,5.5-6,8.9-5.1,4.6.9,5.6.9,10-.2,3.5-.9,4.4-1.2,8.2-3.1,5.3-2.6,7.4-3.3,11-3.5,4.5-.3,8.4,1.2,9.9,3.9.6,1,.7,1.6.7,3.5,0,2,0,2.5-.7,4.1-.5,1.1-1.2,2.3-1.9,3-1.9,2-3.1,2.5-9.5,4-5.9,1.3-9.2,2.4-20.7,6.2-9.4,3.1-15.9,4-20.4,3.6.9.9,1.4.5,3,1.1.1,1-3.7,3.5-5.5,3.6-1.4,0-2.6-.4-3.8-.8.3,1.5.7,2,1.5,3.1-1.5-.4-3-1.2-4.3-1.8,0,1.1,2.4,3.7,4.3,4.3-4,.6-6.2-.6-8.3-2-.4,2.3-1.7,4.4-3.2,6.4,0-2.9-3.8-5.3-4-7.6,1.9,1.9,3.4,4.5,4.4,5.9,1.7-2.2,2.3-4,2.3-6.5,1.2,1.6,3.6,3.6,5.9,3.1-1.4-1.8-2.3-3.2-2.5-5.4,1.1.9,2.3,1.5,3.6,2.2-.1-1.1-.4-2.1-.3-3.4,1.8,2.8,7,2.2,9.4-.8-.2,0-1.1-.2-2.1-.5-1.3-.5-2.5-.5-4-.4-3.9.3-5.9,0-7.9-3.2-.7,1.5-1.3,2.4-2.1,3.8-.2-.3-.2-.5-.4-.9-.2-.3-.2-.5-.4-.9l-.6,3c-.2,1.2-.4,1.8-.6,3-.4-.2-.6-.3-1.1-.4-1.2-.5-3.6-2-4-3.4-.3.7-.4,1.1-.6,3.4-3.8.4-7.2-4.8-7.5-5.5-.1.7-.5,2.2-.9,3.3-.7,1.8-.7,2.2-.5,3,.1.4.2.6.3.9-.4-.3-.6-.4-1-.7-.6-.4-1.3-1.1-1.6-1.6-.3-.5-.7-.8-.8-.7-.1,0-.4.8-.6,1.5s-.5,1.1-.6,1.3c-.5-.3-1.4-1.3-1.5-2.1,0-.3,0-.5,0-.8.1.3.2.5.4.8.2.4.7,1.2.9,1.3.5-.3,1.1-4.3,1.6-5.1,0,1.1.7,2.7,1.5,3.7.3.3.4.5.7.8.4-1.1.6-1.6,1-2.7.5-1.5,1-3.1,1-3.7,0-.4,0-.6,0-1,2.4,3.7,4.5,6,7.5,6.6.2-1.9.4-2.9.6-4.9,1.2,2.3,3.1,4.3,5,5,.6,0,1.1-4.3.7-5.6-.2-.8-1.6-2.4-1.9-2.3-.3,1.3-.4,2.8-1.4,4-2-2.1-4.2-4.9-5.2-6-.3,2.3-.4,3.4-.7,5.6-1.6-2-5.4-3.6-6-7.2,1.3,1.7,2.7,3.9,5.5,5.7,0-.7.9-6,.9-6.9.4,1.9,3.8,6.8,5.4,7.8.6-.8,1-2.6.8-4.1,0-.8-.1-1.2-.2-1.9,1.2,1.6,3.1,5.1,4.3,5.9,1.2-.2,1.8-4.3,1.8-5.3.1.4.2.7.4,1.1.7,2.2,2.4,4,4.4,4.5,1,.3,3.9,0,4.5,0-.9-1.5-1.1-2.5-1.1-4.3,0-1.7-.4-2.4-.7-2.6-1.7-.8-2.9-2-4.1-3.5-.7-.9-1.6-2.4-1.6-2.6-.9,1.7-.7,3.6-1.3,4.3-.3,0-3.2-3.5-3.5-3.9-.2.7-1.5,4.7-1.6,4.9,0,0-.3-.2-.6-.5-2.2-1.7-3.2-2-4.6-4.2-.3.6-.3.8-.5,1.7-.2-.3-4-2.8-4.4-2.9-.2,1.7-.3,2.6-.5,4.3-3.4-1.8-6.3-5-6-6.4.7,1.3,5.5,5,5.5,5,0-2.2.1-3.2.2-5.4.5.9,2.5,2.8,3.9,3.5.4.2.6.4,1.1.6,0-2.7.2-5.6-.6-8,.8,1.1,3.9,3.7,4.2,3.4.3-1.7,0-2.9.2-4.6,1.4,1.2.8,1.2,2.2,2.1.2-1.4.3-2.1.6-3.5.2.3.3.5.5.8,1.9,1.6,3,3.1,5,4.1,1.6-2.8,1.5-5.4,1.5-8.3.9,3.1,0,6.2,1.7,8.3.6.7,3.4,2.8,5.1,3.2-.6-.7-1-2.6-.9-4.9.2-2.7-.4-4.2-.5-5.3-.7-.3-2.2-1.4-3.1-3,2.3,2.7,6.4,2.9,8.5,1.4-.4-.2-.6-.4-1-.6-.7-.4-1.3-1.2-2-2.7-.7-1.5-1.4-2.3-2.3-3-.7-.5-1.4-.9-1.5-.9s.3-.6,1-1.4c2.3-2.7,3.6-6.8,3.4-8.4-.3.5-4.3,4.8-8.2,4.8.4-2-2.5-5-4.1-5.3.8,2.4-1.2,5.9-3.4,6.3-1.3.2-2.4-.3-3.6-1.7-1.4-1.6-3-2.4-5.1-2-.7.1-1.3.2-1.9.3.6.3,1.3,1,1.3,1.8,0,.9-1.3,2.8-2.1,2.7-3-.2-6.4-2.7-9.3-.9,1,0,1.6,4.1-1.4,5.5-3.4,1.6-9.7,4.4-12.4,4.6,2.7-2.9,1.1-5.5-1.3-4.2-7,4-1.6,14,3.3,17.2-.1-1-.3-1.5-.4-2.2,1.5,1,3.8,2,5.1,2.5,0-.9.3-2,.5-2.5,1,1.8,2.6,3.3,3.7,4.4,1.9,2.2,4,4,4.3,6.9-3-2.5-6.3-2.6-9.7-.4,1.9-2.1,2-3.3-.9-1.9-2.2,1.1-4.5,1.3-6.2.6-.4-.2-.7-.3-1.1-.4.1,3.2-1,7.6-3.5,8.9,2.4,2.5,4.8-.1,5.9-3-.3,1.8-.2,3.1,0,4.6,1.4-1.3,2.6-2.7,3.3-4.5.1,1.7.2,4,1.4,4.7,0-1.2.3-4,2.2-4.9-.5,1.9-.6,3.9,1.1,3.7,0-1.3.2-1.9.7-2.5,2-1.5,3.7-.5,3.6,1.5,0,2.2-1.5,4.7-4.1,7.2-6,5.8-9.7,11.6-11.5,18.3-.9,3.4-1.1,9.3-.4,12.6,1.4,6.2,4.7,10.9,9.5,13.6,1.7.9,5.9,2.4,6.1,2.3-1-3.1-1.3-8.6-1-13,.4,2,1.1,11.6,1.8,13.4,1.7,6.6,2.2,11.3,1.8,15.2-.3,2.9-.8,4.5-1.7,5.3-.9.9-1.8,1-3.6.3-1.8-.6-3.5-.3-4.5.8-1,1.2-3,4.2-3,4.6.6.6,2.5,0,2.4-.9,0-.3.5-1.4.8-1.7-.6,2.7.3,3.1,2,2.8,3.1-.5,1.8-2.2,3.2-3-.2.4-.3,1-.3,1.4,0,1.1,1,1.4,3.5,1,1.8-.3,2.3-.5,3.5-1.3.6-.4.8-.6,1.4-1,.6.1.9.2,1.5.3,1.6.3,4.1,0,5-.7,2.2-1.6,2.3-3,.4-5-1.4-1.5-.9-2.3,2-3.7,3.6-2,5-4,4.9-7.8-2.3,3.3-5.9.5-5-2.7.4-2.3,2.1-7.1,5-11.7,2.3-3.6,5.6-15.7,6.1-17.6-.1,5.3-2.2,11.5-5.5,17.5-1.1,2-1.5,2.9-1.5,2.9,0,0,6.6-2.9,9.9-4.8,1.4-.8,4.9-2.9,7.7-4.7,6.4-4,11.4-6.8,14.3-8,4.1-1.7,9.4-2.1,12.7-1,.9.3,1.6.8,8,5.1,1.7,1.1,4.2,2.7,5.7,3.5,2.9,1.6,5.5,3.6,6.1,4.8.5,1,.6,2.1.4,8.1-.1,5.5-.3,6.4-1.4,7.6-.7.8-1,1-3.7,1.5-4.8.9-4.8,1.4-5.8,6-.2.8-.6,2.1-1,2.7,2,.2,4-1.3,4.3-3.1.2-1,.7-1.9,1.3-2.2-.7,1.7-1.1,2.8-.9,4.7,5.2-1.1,3.5-1.6,4.4-4.7h0ZM431.3,188.3c-1-1.9-.8-3.5-.8-5.7-1.6.7-1.9,1.1-3.4,2.6-.8-4.1,2-6,3.2-7.3,0,.9-3,3.2-2.8,6,1.4-1.2,3.5-3,4-3.1-.4.5-.9,5.2,0,6.5.2-.4,1.6-2.3,2.6-3.3,1.1-1,2.2-2.5,2.4-2.9.3.8,1.2,2.4,1.7,3.1,1.1-2.8,2.3-4,3.8-6.3.2,1.1.9,5.5,1.4,5.6,1.3-1.7,2.5-5.6,3.1-6-.7,3.1-2,5.2-3.1,7.9-.8-1.8-1.6-3.8-1.7-5.9-2.6,3.5-2.7,3.2-2.5,7-1.2-1.2-2-2.7-2.5-4.4-1.8,2.3-4.8,4.4-4.9,7-.2-.3-.3-.5-.5-.8ZM441.9,147.1c-1.4,0-3.4-.6-6.3-1.8-1.7-.7-2.8-.8-3.6-.1-1.4,1-.8,3,.8,2.2,1.5-.8.2-1.3,0-1.5.6-.1,1.5.2,1.5.7,0,.6-1.2,1.5-2.1,1.4-2.5-.2-1.6-3.5,1-3.9.4,0,1.5.2,2.5.6,4.1,1.7,4.7,1.8,6.9,1.7,1.2,0,2.2-.2,2.2-.2-.2-.4-1.7-1.9-3.2-2.5.8-.5,3.7-.4,6.8.2,2.5.5,3,.5,4.7,0,1.1-.3,2.5-.8,3.1-1.2.5-.3.7-.4,1.1-.7-1.4-1.2-3.3-1.4-4.8-2.1.4-.2,2.2-1,3.6-1.2,2.3-.3,6.7-4.2,7.4-4.5-.4.5-1.8,2.2-2.8,2.9-1.5,1.1-2.2,1.4-4.2,2-.9.2-1.4.4-2.3.6,1.4.7,2.7,1.3,4.1,2-6.4,4.6-7.9,3-14.7,2.2.5.5.8.8,1.3,1.4.5.5.8.8,1.3,1.4-1.5.2-3,.5-4.4.4ZM494.7,241.2c2.6.8,6.5,0,7.4-2.4.4-1.2,0-3.5-.7-4.9-.4-.7-.8-1.8-1-2.5-.3-1.4-.1-2.1,1.1-3.5,2.6-2.9,3.3-3.9,3.6-5.6.2-.9,0-2.2,0-2.2-1.1,1.4-3.6,2.2-4.8,1.5-2.4-1.8,3.2-6.4,3.9-10.6-2.4-2-5.4-3.9-8.1-6.1-3.2-2.5-8.3-2.7-12.7-1.3-.7.2-1.6.4-1.6.4,0,.4,0,.6.1.9,0,2.7,1.7,6.5,4.7,10.3,2.7,3.4,4.1,5.6,4.5,6.9.2.7.3,2.8.2,7.5-.1,6.3-.2,6.5-.8,7.3-.8,1.1-2.2,1.4-4.3,1-4.3-.7-6.3.2-7.6,6,.6.7,3.5.4,3.5-1,0-1.1.2-1.5,1-2.3-.7,1.7-.1,3.2.9,3.6,2.1.8,3.7-2.9,4.4-3.5,0,4.5,2.2,3.1,6.3.4h0ZM397.5,238.6c1.5,1.5,3.2,2.1,5.1-.3-2.9-.7-4.4-2.3-5.2-5.6,1.4,1.8,4.1,2.4,5.7,1.5,1.6-.9,1.7-1.9,1.7-3.3,0-1.4-1.3-1.9-2.1-1.8-.8.1-2,1.1-1.5,3-6-.7-4.2-6.6-1.5-9.3-1.5-1.1-2.6-2.2-3.1-5.2.6.2,1.5,1.3,3.2,1.1,1.4-.3,2.1-1.6,2.1-2.7,0-1-.5-1.7-1.4-1.6-.8,0-1.3.8-1.2,2.4-1.6-.5-2.4-1.7-2.8-3.5-1.2,1.1-2.4,1.2-2.5,1.5-.1.9-1.9,2.9-2.7,2.8.3-.5,0-1.7-.4-1.8-1.3-.3-2.1,1.1-1.6,2.7,1,2.5,4.1.4,4.7-.5-.2,2.8-1.2,4.5-2.3,5.9,2.9,3.6,3,8.3-1.7,9.8.1-1.8-.1-2.5-1.5-2.6-1.2.1-1.9,1-1.9,2.5,0,1.8,1.4,2.9,3.2,2.7,2.1-.5,2.7-1.3,4.1-2.9-1,2.7-2.7,5.5-5.2,6.6,2.1,2.1,3.8.9,5.4-.9-.5,2.5,0,3.3,1.6,5.2,1.5-2.5,1.8-3,1.7-5.6h0ZM417,228.5c1.5-1.8,2.7-3.7,3.9-5.7-5.2-4.1-7.8-10.1-8.1-15.4-3.2-3.4-9.7-9.7-10.3-10.3-.5-.4-.9-.4-1.2-.2-.3.2-.4.6-.3,1,.2.8,1.1,1.8,1.4,2.3-3.8,1.9-3.1,5-1.1,6.9-.6.1-1.3.1-1.5.2-.5,2.3-2.3,3.9-2.8,4.6,0,.8-.1,1.2.3,1.9,3.6-3.2,3.9-2.7,4.1-2.7.8,0,2.4,2.9,3.2,4.2-2.1,1.9-2.9,3.7-1.7,6.5,2.7-4,3.3-2,5.2.8,2.4,3.9,5.8,7.9,6.6,7.7.2,0,1.1-.9,2-2h0ZM395.4,213.5c.5-.3.8-.7.7-1.1,0-1.2-.4-1.4-2.1-1.1-1.4.3-2.4,0-3.7-.3-.3,0,0,1.1.4,1.7,1.3,1.6,3.1,1.9,4.6.8h0ZM399.4,206.5c-.5.7-2.6,2.5-3.4,4.1.3.5.4.7.7,1.1,1.5-1.6,2.8-2.9,2.7-5.2h0ZM395.8,209.8c.8-1.4.6-2.3-2.1-1.9-1.8.2-2.8-.4-4.3-.8,0,0-.1.5-.1,1,0,1.8,1.9,2.9,4.6,2.6,1.1-.1,1.6-.2,2-.9ZM399,204.7c-1,.6-1.9,1.7-2.9,2.5,0,.4.4.9.7,1.4,1.6-1.1,2.5-3,2.3-3.9h0ZM396.8,204c-3,.4-4.8.4-7.2-1-3.2,3.4,3.3,4.6,4.6,4.4,2.2-.2,2.8-1.7,2.6-3.4h0ZM399.1,202.3c-.9.5-1,.5-2,1.4,0,.9,0,1.2.2,1.9.9-.6,1.7-2,1.7-3.3ZM397.1,203.1c.7-.5.5-2.5,0-2.5-1.7.1-3-.3-4.1-1.2-2.3-1.8-4.9.7-3,2.9,1.3,1.5,5.4,1.9,7.1.8ZM401.1,199.9c-1.2,0-2.3.3-3.3.7.4.4.6,1.1.5,1.6,1.2-.5,1.9-1.1,2.8-2.2h0ZM400.6,197.6c-2.3.8-4.3,1.7-6.4,1.7,0,.2.5.5,1.2.6,1,.2,4.5-.4,5.5-.6,0-.6-.2-1.2-.3-1.7ZM400.1,197.1c1.5-.7,3.6-2.4,4.3-3.5.7-1.5.7-3.8-.3-4.4-2.7-1.8-4.5,2-2.9,3.7.2.2.3.3.5.5-3.7,3.2-9.6,2.9-12.4,1.4,1.1-.8,1.6-2.2,1.2-3.4-.5-.9-1-1-2.3-.9-1.5.2-2,1.5-2,3.1,0,2.3,2.2,4.2,4.8,4.8,2.6.6,7.8-.7,9.1-1.3,1.3-.6,0,0,0,0h0ZM400.9,193.6c-1.2-1.2-1.4-2.4-.8-3.9.2-20.2-3-41.8,3.1-62-16.5,11-12.8,46.2-12.5,62.8.9,2.6-.1,3.8-.8,4.2,3.4,1.1,7.2.9,11-1.1h0ZM467.1,163.2c-1.3-1.1-2.9-5.5-3.5-7.2-2.6-1.6-2.8-2.1-4.4-5.1,0,.3-1.1,2.2-1.3,2.5-1.4-.5-3.3-2.7-5.3-3.9,0,.1,0,.6-.1,1.2,0,.6-.6,1.8-.7,2.1-.6-.7-1.2-1.1-1.6-1.8,0,1.4-.3,2.2-.3,4-1.2-.6-1.6-1-3.2-1.7-.1,2.3.3,5.1,1.8,6.3,1.1.8,2.9,2,3.1,2,0,0,.4-.6.7-1.3.5-1.1.6-1.7.5-3.6,0-.9,0-1.4,0-2.4.1.5.2.7.3,1.2.4,1.3,1.1,2.5,2.8,4.2.4.4.6.6,1,1,.2-1,.3-1.5.6-2.5.2-1,.3-1.5.6-2.5.5.9.7,1.3,1.2,2.2,1.3,2.4,5,5.9,8,5.2h0ZM421,160.1c-2.3-.1-5.2.7-7.4-.5,0,1.8,1.6,3.3,2.7,3.9,1.3.7,4.2.3,6.3-.8,1.8-.9,2.6-.8,2.8.2,0,.3-.2.8-.2.8,2.6-1.1,4.6-.6,6.7.2-2-5.3-9-4-10.9-3.9h0Z"/>
            <path class="cls-7" d="M511.1,236.8c.1,4.1,3.2,2.7,6.5.3.6-.7.7-.7,1.6-.5.5.1,1.8,0,2.8-.2,2.8-.6,3.9-1.7,3.9-3.7,0-.9-.7-1.7-2.5-2.7-.6-.4-1.1-.9-1.3-1.5-.4-1.5-.4-4.7,0-5.7.4-.9,1.6-1.9,2.4-2.2,2.9-1.3,3.1-4.9,3.2-7.6-4.1,3.9-7.2-1.9-7-5.8.2-3,.5-5.8,2.5-13.9,2.6-10.2,3.3-13.4,3.1-17.7-.4-7.5-2.8-10.5-7-14,3.5-3.5,5.9-7.7,6.1-11.5.3-5.4-2-8.8-7-10.2-4.4-1.3-10-.5-17.8,2.2-4.6,1.8-16.8,5.5-14.6-4-3.3,1.2-2.7,5.2-1.3,7.5-4.3-1.6-4.1-5.6-3.8-7.3.4-1.6,2.3-3.6,3.5-3.7-5.7-2.3-8.1,2.7-8.5,5.9-5.2-2.5-3.3-9.6.6-12,2-1.5,4.2-1.8,5.9-1.3,1.2.4,2.5,2.9,1.6,4.2,4.7-1.5,1.6-7.6-1.8-7.6,5.4-3.2,7.9,2.7,8,6.5.1,1.2-.8,4.6-1.9,4.9,7.4,1.7,6.2-10,4.5-13,1.1.4,1.2,0,1.8.3,5.2,1.4,5.1,7.8,3,10.4.7,0,3.4-1.2,4.2-2,2-2.1,2.3-4.8.8-7.2-.3-.5-.4-.7-.7-1.2.6.6,1,.9,1.6,1.4,1.2,1.1,2.2,2.1,3.5,4.9.8,1.6,2.6,6.6,8.3,6.1-2.2-2-1.9-5.2-3.4-7.5,1.5.9.9.6,3.6,2.8,4.4,3.6,6.3,4.6,8.8,4.6,3.5,0,6.6-2.7,6.5-5.6,0-2.3-1.7-3.4-3.6-2.3-2.8,1.9-1.9,3.7-1.5,4.5-.9.2-3.8-.5-5.6-1.5-.9-.5-3.6-2.4-6.1-4.3-7.1-5.4-9.5-6.6-14.1-7.6-7.1-1.5-14.2-.3-20.9,3.4-5.4,3-8.5,6.7-9.8,12.2-.3,1.3-.4,2.4-.3,4.1.2,2.7.9,4.3,2.5,5.7.4.3.6.5,1,.8-.3.6-.5,1-.8,1.6-1,1.9-1.2,4.5-.7,6.2.3,1,1.4,2.8,2.1,2.8,1.3-6.3,5.5-6,8.9-5.1,4.6.9,5.6.9,10-.2,3.5-.9,4.4-1.2,8.2-3.1,5.3-2.6,7.4-3.3,11-3.5,4.5-.3,8.4,1.2,9.9,3.9.6,1,.7,1.6.7,3.5,0,2,0,2.5-.7,4.1-.5,1.1-1.2,2.3-1.9,3-1.9,2-3.1,2.5-9.5,4-5.9,1.3-9.2,2.4-20.7,6.2-9.4,3.1-15.9,4-20.4,3.6.9.9,1.4.5,3,1.1.1,1-3.7,3.5-5.5,3.6-1.4,0-2.6-.4-3.8-.8.3,1.5.7,2,1.5,3.1-1.5-.4-3-1.2-4.3-1.8,0,1.1,2.4,3.7,4.3,4.3-4,.6-6.2-.6-8.3-2-.4,2.3-1.7,4.4-3.2,6.4,0-2.9-3.8-5.3-4-7.6,1.9,1.9,3.4,4.5,4.4,5.9,1.7-2.2,2.3-4,2.3-6.5,1.2,1.6,3.6,3.6,5.9,3.1-1.4-1.8-2.3-3.2-2.5-5.4,1.1.9,2.3,1.5,3.6,2.2-.1-1.1-.4-2.1-.3-3.4,1.8,2.8,7,2.2,9.4-.8-.2,0-1.1-.2-2.1-.5-1.3-.5-2.5-.5-4-.4-3.9.3-5.9,0-7.9-3.2-.7,1.5-1.3,2.4-2.1,3.8-.2-.3-.2-.5-.4-.9-.2-.3-.2-.5-.4-.9l-.6,3c-.2,1.2-.4,1.8-.6,3-.4-.2-.6-.3-1.1-.4-1.2-.5-3.6-2-4-3.4-.3.7-.4,1.1-.6,3.4-3.8.4-7.2-4.8-7.5-5.5-.1.7-.5,2.2-.9,3.3-.7,1.8-.7,2.2-.5,3,.1.4.2.6.3.9-.4-.3-.6-.4-1-.7-.6-.4-1.3-1.1-1.6-1.6-.3-.5-.7-.8-.8-.7-.1,0-.4.8-.6,1.5s-.5,1.1-.6,1.3c-.5-.3-1.4-1.3-1.5-2.1,0-.3,0-.5,0-.8.1.3.2.5.4.8.2.4.7,1.2.9,1.3.5-.3,1.1-4.3,1.6-5.1,0,1.1.7,2.7,1.5,3.7.3.3.4.5.7.8.4-1.1.6-1.6,1-2.7.5-1.5,1-3.1,1-3.7,0-.4,0-.6,0-1,2.4,3.7,4.5,6,7.5,6.6.2-1.9.4-2.9.6-4.9,1.2,2.3,3.1,4.3,5,5,.6,0,1.1-4.3.7-5.6-.2-.8-1.6-2.4-1.9-2.3-.3,1.3-.4,2.8-1.4,4-2-2.1-4.2-4.9-5.2-6-.3,2.3-.4,3.4-.7,5.6-1.6-2-5.4-3.6-6-7.2,1.3,1.7,2.7,3.9,5.5,5.7,0-.7.9-6,.9-6.9.4,1.9,3.8,6.8,5.4,7.8.6-.8,1-2.6.8-4.1,0-.8-.1-1.2-.2-1.9,1.2,1.6,3.1,5.1,4.3,5.9,1.2-.2,1.8-4.3,1.8-5.3.1.4.2.7.4,1.1.7,2.2,2.4,4,4.4,4.5,1,.3,3.9,0,4.5,0-.9-1.5-1.1-2.5-1.1-4.3,0-1.7-.4-2.4-.7-2.6-1.7-.8-2.9-2-4.1-3.5-.7-.9-1.6-2.4-1.6-2.6-.9,1.7-.7,3.6-1.3,4.3-.3,0-3.2-3.5-3.5-3.9-.2.7-1.5,4.7-1.6,4.9,0,0-.3-.2-.6-.5-2.2-1.7-3.2-2-4.6-4.2-.3.6-.3.8-.5,1.7-.2-.3-4-2.8-4.4-2.9-.2,1.7-.3,2.6-.5,4.3-3.4-1.8-6.3-5-6-6.4.7,1.3,5.5,5,5.5,5,0-2.2.1-3.2.2-5.4.5.9,2.5,2.8,3.9,3.5.4.2.6.4,1.1.6,0-2.7.2-5.6-.6-8,.8,1.1,3.9,3.7,4.2,3.4.3-1.7,0-2.9.2-4.6,1.4,1.2.8,1.2,2.2,2.1.2-1.4.3-2.1.6-3.5.2.3.3.5.5.8,1.9,1.6,3,3.1,5,4.1,1.6-2.8,1.5-5.4,1.5-8.3.9,3.1,0,6.2,1.7,8.3.6.7,3.4,2.8,5.1,3.2-.6-.7-1-2.6-.9-4.9.2-2.7-.4-4.2-.5-5.3-.7-.3-2.2-1.4-3.1-3,2.3,2.7,6.4,2.9,8.5,1.4-.4-.2-.6-.4-1-.6-.7-.4-1.3-1.2-2-2.7-.7-1.5-1.4-2.3-2.3-3-.7-.5-1.4-.9-1.5-.9s.3-.6,1-1.4c2.3-2.7,3.6-6.8,3.4-8.4-.3.5-4.3,4.8-8.2,4.8.4-2-2.5-5-4.1-5.3.8,2.4-1.2,5.9-3.4,6.3-1.3.2-2.4-.3-3.6-1.7-1.4-1.6-3-2.4-5.1-2-.7.1-1.3.2-1.9.3.6.3,1.3,1,1.3,1.8,0,.9-1.3,2.8-2.1,2.7-3-.2-6.4-2.7-9.3-.9,1,0,1.6,4.1-1.4,5.5-3.4,1.6-9.7,4.4-12.4,4.6,2.7-2.9,1.1-5.5-1.3-4.2-7,4-1.6,14,3.3,17.2-.1-1-.3-1.5-.4-2.2,1.5,1,3.8,2,5.1,2.5,0-.9.3-2,.5-2.5,1,1.8,2.6,3.3,3.7,4.4,1.9,2.2,4,4,4.3,6.9-3-2.5-6.3-2.6-9.7-.4,1.9-2.1,2-3.3-.9-1.9-2.2,1.1-4.5,1.3-6.2.6-.4-.2-.7-.3-1.1-.4.1,3.2-1,7.6-3.5,8.9,2.4,2.5,4.8-.1,5.9-3-.3,1.8-.2,3.1,0,4.6,1.4-1.3,2.6-2.7,3.3-4.5.1,1.7.2,4,1.4,4.7,0-1.2.3-4,2.2-4.9-.5,1.9-.6,3.9,1.1,3.7,0-1.3.2-1.9.7-2.5,2-1.5,3.7-.5,3.6,1.5,0,2.2-1.5,4.7-4.1,7.2-6,5.8-9.7,11.6-11.5,18.3-.9,3.4-1.1,9.3-.4,12.6,1.4,6.2,4.7,10.9,9.5,13.6,1.7.9,5.9,2.4,6.1,2.3-1-3.1-1.3-8.6-1-13,.4,2,1.1,11.6,1.8,13.4,1.7,6.6,2.2,11.3,1.8,15.2-.3,2.9-.8,4.5-1.7,5.3-.9.9-1.8,1-3.6.3-1.8-.6-3.5-.3-4.5.8-1,1.2-3,4.2-3,4.6.6.6,2.5,0,2.4-.9,0-.3.5-1.4.8-1.7-.6,2.7.3,3.1,2,2.8,3.1-.5,1.8-2.2,3.2-3-.2.4-.3,1-.3,1.4,0,1.1,1,1.4,3.5,1,1.8-.3,2.3-.5,3.5-1.3.6-.4.8-.6,1.4-1,.6.1.9.2,1.5.3,1.6.3,4.1,0,5-.7,2.2-1.6,2.3-3,.4-5-1.4-1.5-.9-2.3,2-3.7,3.6-2,5-4,4.9-7.8-2.3,3.3-5.9.5-5-2.7.4-2.3,2.1-7.1,5-11.7,2.3-3.6,5.6-15.7,6.1-17.6-.1,5.3-2.2,11.5-5.5,17.5-1.1,2-1.5,2.9-1.5,2.9,0,0,6.6-2.9,9.9-4.8,1.4-.8,4.9-2.9,7.7-4.7,6.4-4,11.4-6.8,14.3-8,4.1-1.7,9.4-2.1,12.7-1,.9.3,1.6.8,8,5.1,1.7,1.1,4.2,2.7,5.7,3.5,2.9,1.6,5.5,3.6,6.1,4.8.5,1,.6,2.1.4,8.1-.1,5.5-.3,6.4-1.4,7.6-.7.8-1,1-3.7,1.5-4.8.9-4.8,1.4-5.8,6-.2.8-.6,2.1-1,2.7,2,.2,4-1.3,4.3-3.1.2-1,.7-1.9,1.3-2.2-.7,1.7-1.1,2.8-.9,4.7,5.2-1.1,3.5-1.6,4.4-4.7h0ZM431.3,188.3c-1-1.9-.8-3.5-.8-5.7-1.6.7-1.9,1.1-3.4,2.6-.8-4.1,2-6,3.2-7.3,0,.9-3,3.2-2.8,6,1.4-1.2,3.5-3,4-3.1-.4.5-.9,5.2,0,6.5.2-.4,1.6-2.3,2.6-3.3,1.1-1,2.2-2.5,2.4-2.9.3.8,1.2,2.4,1.7,3.1,1.1-2.8,2.3-4,3.8-6.3.2,1.1.9,5.5,1.4,5.6,1.3-1.7,2.5-5.6,3.1-6-.7,3.1-2,5.2-3.1,7.9-.8-1.8-1.6-3.8-1.7-5.9-2.6,3.5-2.7,3.2-2.5,7-1.2-1.2-2-2.7-2.5-4.4-1.8,2.3-4.8,4.4-4.9,7-.2-.3-.3-.5-.5-.8ZM441.9,147.1c-1.4,0-3.4-.6-6.3-1.8-1.7-.7-2.8-.8-3.6-.1-1.4,1-.8,3,.8,2.2,1.5-.8.2-1.3,0-1.5.6-.1,1.5.2,1.5.7,0,.6-1.2,1.5-2.1,1.4-2.5-.2-1.6-3.5,1-3.9.4,0,1.5.2,2.5.6,4.1,1.7,4.7,1.8,6.9,1.7,1.2,0,2.2-.2,2.2-.2-.2-.4-1.7-1.9-3.2-2.5.8-.5,3.7-.4,6.8.2,2.5.5,3,.5,4.7,0,1.1-.3,2.5-.8,3.1-1.2.5-.3.7-.4,1.1-.7-1.4-1.2-3.3-1.4-4.8-2.1.4-.2,2.2-1,3.6-1.2,2.3-.3,6.7-4.2,7.4-4.5-.4.5-1.8,2.2-2.8,2.9-1.5,1.1-2.2,1.4-4.2,2-.9.2-1.4.4-2.3.6,1.4.7,2.7,1.3,4.1,2-6.4,4.6-7.9,3-14.7,2.2.5.5.8.8,1.3,1.4.5.5.8.8,1.3,1.4-1.5.2-3,.5-4.4.4ZM494.7,241.2c2.6.8,6.5,0,7.4-2.4.4-1.2,0-3.5-.7-4.9-.4-.7-.8-1.8-1-2.5-.3-1.4-.1-2.1,1.1-3.5,2.6-2.9,3.3-3.9,3.6-5.6.2-.9,0-2.2,0-2.2-1.1,1.4-3.6,2.2-4.8,1.5-2.4-1.8,3.2-6.4,3.9-10.6-2.4-2-5.4-3.9-8.1-6.1-3.2-2.5-8.3-2.7-12.7-1.3-.7.2-1.6.4-1.6.4,0,.4,0,.6.1.9,0,2.7,1.7,6.5,4.7,10.3,2.7,3.4,4.1,5.6,4.5,6.9.2.7.3,2.8.2,7.5-.1,6.3-.2,6.5-.8,7.3-.8,1.1-2.2,1.4-4.3,1-4.3-.7-6.3.2-7.6,6,.6.7,3.5.4,3.5-1,0-1.1.2-1.5,1-2.3-.7,1.7-.1,3.2.9,3.6,2.1.8,3.7-2.9,4.4-3.5,0,4.5,2.2,3.1,6.3.4h0ZM397.5,238.6c1.5,1.5,3.2,2.1,5.1-.3-2.9-.7-4.4-2.3-5.2-5.6,1.4,1.8,4.1,2.4,5.7,1.5,1.6-.9,1.7-1.9,1.7-3.3,0-1.4-1.3-1.9-2.1-1.8-.8.1-2,1.1-1.5,3-6-.7-4.2-6.6-1.5-9.3-1.5-1.1-2.6-2.2-3.1-5.2.6.2,1.5,1.3,3.2,1.1,1.4-.3,2.1-1.6,2.1-2.7,0-1-.5-1.7-1.4-1.6-.8,0-1.3.8-1.2,2.4-1.6-.5-2.4-1.7-2.8-3.5-1.2,1.1-2.4,1.2-2.5,1.5-.1.9-1.9,2.9-2.7,2.8.3-.5,0-1.7-.4-1.8-1.3-.3-2.1,1.1-1.6,2.7,1,2.5,4.1.4,4.7-.5-.2,2.8-1.2,4.5-2.3,5.9,2.9,3.6,3,8.3-1.7,9.8.1-1.8-.1-2.5-1.5-2.6-1.2.1-1.9,1-1.9,2.5,0,1.8,1.4,2.9,3.2,2.7,2.1-.5,2.7-1.3,4.1-2.9-1,2.7-2.7,5.5-5.2,6.6,2.1,2.1,3.8.9,5.4-.9-.5,2.5,0,3.3,1.6,5.2,1.5-2.5,1.8-3,1.7-5.6h0ZM417,228.5c1.5-1.8,2.7-3.7,3.9-5.7-5.2-4.1-7.8-10.1-8.1-15.4-3.2-3.4-9.7-9.7-10.3-10.3-.5-.4-.9-.4-1.2-.2-.3.2-.4.6-.3,1,.2.8,1.1,1.8,1.4,2.3-3.8,1.9-3.1,5-1.1,6.9-.6.1-1.3.1-1.5.2-.5,2.3-2.3,3.9-2.8,4.6,0,.8-.1,1.2.3,1.9,3.6-3.2,3.9-2.7,4.1-2.7.8,0,2.4,2.9,3.2,4.2-2.1,1.9-2.9,3.7-1.7,6.5,2.7-4,3.3-2,5.2.8,2.4,3.9,5.8,7.9,6.6,7.7.2,0,1.1-.9,2-2h0ZM395.4,213.5c.5-.3.8-.7.7-1.1,0-1.2-.4-1.4-2.1-1.1-1.4.3-2.4,0-3.7-.3-.3,0,0,1.1.4,1.7,1.3,1.6,3.1,1.9,4.6.8h0ZM399.4,206.5c-.5.7-2.6,2.5-3.4,4.1.3.5.4.7.7,1.1,1.5-1.6,2.8-2.9,2.7-5.2h0ZM395.8,209.8c.8-1.4.6-2.3-2.1-1.9-1.8.2-2.8-.4-4.3-.8,0,0-.1.5-.1,1,0,1.8,1.9,2.9,4.6,2.6,1.1-.1,1.6-.2,2-.9ZM399,204.7c-1,.6-1.9,1.7-2.9,2.5,0,.4.4.9.7,1.4,1.6-1.1,2.5-3,2.3-3.9h0ZM396.8,204c-3,.4-4.8.4-7.2-1-3.2,3.4,3.3,4.6,4.6,4.4,2.2-.2,2.8-1.7,2.6-3.4h0ZM399.1,202.3c-.9.5-1,.5-2,1.4,0,.9,0,1.2.2,1.9.9-.6,1.7-2,1.7-3.3ZM397.1,203.1c.7-.5.5-2.5,0-2.5-1.7.1-3-.3-4.1-1.2-2.3-1.8-4.9.7-3,2.9,1.3,1.5,5.4,1.9,7.1.8ZM401.1,199.9c-1.2,0-2.3.3-3.3.7.4.4.6,1.1.5,1.6,1.2-.5,1.9-1.1,2.8-2.2h0ZM400.6,197.6c-2.3.8-4.3,1.7-6.4,1.7,0,.2.5.5,1.2.6,1,.2,4.5-.4,5.5-.6,0-.6-.2-1.2-.3-1.7ZM400.1,197.1c1.5-.7,3.6-2.4,4.3-3.5.7-1.5.7-3.8-.3-4.4-2.7-1.8-4.5,2-2.9,3.7.2.2.3.3.5.5-3.7,3.2-9.6,2.9-12.4,1.4,1.1-.8,1.6-2.2,1.2-3.4-.5-.9-1-1-2.3-.9-1.5.2-2,1.5-2,3.1,0,2.3,2.2,4.2,4.8,4.8,2.6.6,7.8-.7,9.1-1.3,1.3-.6,0,0,0,0h0ZM400.9,193.6c-1.2-1.2-1.4-2.4-.8-3.9.2-20.2-3-41.8,3.1-62-16.5,11-12.8,46.2-12.5,62.8.9,2.6-.1,3.8-.8,4.2,3.4,1.1,7.2.9,11-1.1h0ZM467.1,163.2c-1.3-1.1-2.9-5.5-3.5-7.2-2.6-1.6-2.8-2.1-4.4-5.1,0,.3-1.1,2.2-1.3,2.5-1.4-.5-3.3-2.7-5.3-3.9,0,.1,0,.6-.1,1.2,0,.6-.6,1.8-.7,2.1-.6-.7-1.2-1.1-1.6-1.8,0,1.4-.3,2.2-.3,4-1.2-.6-1.6-1-3.2-1.7-.1,2.3.3,5.1,1.8,6.3,1.1.8,2.9,2,3.1,2,0,0,.4-.6.7-1.3.5-1.1.6-1.7.5-3.6,0-.9,0-1.4,0-2.4.1.5.2.7.3,1.2.4,1.3,1.1,2.5,2.8,4.2.4.4.6.6,1,1,.2-1,.3-1.5.6-2.5.2-1,.3-1.5.6-2.5.5.9.7,1.3,1.2,2.2,1.3,2.4,5,5.9,8,5.2h0ZM421,160.1c-2.3-.1-5.2.7-7.4-.5,0,1.8,1.6,3.3,2.7,3.9,1.3.7,4.2.3,6.3-.8,1.8-.9,2.6-.8,2.8.2,0,.3-.2.8-.2.8,2.6-1.1,4.6-.6,6.7.2-2-5.3-9-4-10.9-3.9h0Z"/>
          </g>
        </g>
      </g>
      <path class="cls-6" d="M189.8,173.4c-17.8-34-10.2-72,18.3-90.4,19-12.3,42.9-13.3,63.2-3.2-1-22.8,9.2-43.6,27.8-55.6,28.5-18.4,66.2-9.8,89.9,20.5,1.1,1.3,6.9,8.1,11.9,22.2,7.2,20.3,8,42.4,2.2,64.1l-28.8,108.2-111.7-17.4c-22.1-3.6-42-13.4-57.5-28.3-10.7-10.3-14.6-18.4-15.3-20Z"/>
      <path class="cls-5" d="M189.8,173.4c-17.8-34-10.2-72,18.3-90.4,19-12.3,42.9-13.3,63.2-3.2-1-22.8,9.2-43.6,27.8-55.6,28.5-18.4,66.2-9.8,89.9,20.5,1.1,1.3,6.9,8.1,11.9,22.2,7.2,20.3,8,42.4,2.2,64.1l-28.8,108.2-111.7-17.4c-22.1-3.6-42-13.4-57.5-28.3-10.7-10.3-14.6-18.4-15.3-20Z"/>
      <circle class="cls-11" cx="307.6" cy="140.7" r="39.4"/>
      <g>
        <path class="cls-5" d="M86.5,300.3h-11.1c0-15.2-11.1-24.3-29.9-24.3s-28.6,10.6-28.6,26.7c0,36.4,73.3,52.7,73.3,88.9s-22.5,38.6-44.6,38.4c-24.1-.4-44.6-9.3-44.6-27.1h13.2c0,16.5,15,24.9,31.4,24.9s35.1-9.1,35.1-26.9c0-41.8-74.8-55.3-74.8-90.6s15.8-36.6,39.7-36.4c22.1.2,41,9.8,41,26.4Z"/>
        <path class="cls-5" d="M132.6,317.2c19.9,0,35.3,4.6,36.6,42.9v59.8c.2,5.6,1.5,6.3,9.5,6.3v1.5h-20.4v-4.6c-20.6,11.9-63.9,12.4-63.9-21.2s20.8-26.7,36.2-31.2c16.5-5,28-10.2,26.9-25.6-2.2-16.9-8.5-25.8-24.9-25.8s-18.2,8.5-19.5,16.3h-14.5c0-13.9,18.6-18.4,34-18.4ZM158.4,420.6v-55.5l-.2-9.3c-3.5,9.8-14.1,13.2-27.1,17.1-16.5,5-24.1,13.2-24.1,29,0,29.9,33.6,29.7,51.4,18.6Z"/>
        <path class="cls-5" d="M181,426.4c8,0,9.3.6,9.5-5.2v-86.9c-.9-13.7-1.1-13.9-11.7-13.9v-1.3l13.4.2h8.9v93.2c.2,15.6-.2,14.1,10.4,14.1v1.1h-30.6v-1.3ZM194.6,273.2c4.6,0,8.2,3.7,8.2,8.5s-3.7,8.2-8.2,8.2-8.5-3.7-8.5-8.2,3.7-8.5,8.5-8.5Z"/>
        <path class="cls-5" d="M292.1,276.9c-9.1,0-10,.9-10,14.1v134.6h37.9c10.8-1.5,16.7-10.4,21.2-26.9h1.1l-4.1,29h-76.9v-.9c9.1,0,10-.9,10-14.1v-121.8c0-13.2-.9-14.1-10-14.1v-.9h30.8v.9Z"/>
        <path class="cls-5" d="M387.1,317.2c19.9,0,35.3,4.6,36.6,42.9v59.8c.2,5.6,1.5,6.3,9.5,6.3v1.5h-20.4v-4.6c-20.6,11.9-63.9,12.4-63.9-21.2s20.8-26.7,36.2-31.2c16.5-5,28-10.2,26.9-25.6-2.2-16.9-8.5-25.8-24.9-25.8s-18.2,8.5-19.5,16.3h-14.5c0-13.9,18.6-18.4,34-18.4ZM412.8,420.6v-55.5l-.2-9.3c-3.5,9.8-14.1,13.2-27.1,17.1-16.5,5-24.1,13.2-24.1,29,0,29.9,33.6,29.7,51.4,18.6Z"/>
        <path class="cls-5" d="M447.1,420.8v-86.7c0-13.7-1.1-13.7-11.7-13.7v-1.3l13.4.2h8.9v18c17.8-27.3,62.8-28,62.8,3.5v79.3c.2,5.6,1.5,6.3,9.5,6.3v1.5l-13.4-.2h-16.5v-1.5c8,0,9.3.4,9.5-5.4v-80c.9-28.2-36.2-27.1-52,.2v79.1c.2,5.6,1.5,6.3,9.5,6.3v1.5l-13.4-.2h-16.3v-1.5c8,0,9.3.4,9.5-5.4Z"/>
        <path class="cls-5" d="M581.7,426.8c2.6,0,12.4.4,8.7-8.7l-26.9-57.6-11.1,14.1v39c.4,13.7-1.1,13.2,9.5,13.2v1.3h-29.7v-1.1c10.6,0,9.3,1.1,9.5-13v-123.1c-.2-14.1-1.1-13.7-11.7-13.7v-1.3l13.4.2h8.9v94.3l35.3-44c3.7-5.9.9-6.3-7.8-6.1v-1.1h28.4v1.1c-7.8,0-12.4.4-16.9,4.8l-5,6.5c-.2,0-.2.2-.2.2l-15.2,19.1,30.1,67.2c6.1,9.5,12.8,8.5,12.8,8.9v1.1h-32.3v-1.3Z"/>
        <path class="cls-5" d="M647.8,317.2c19.9,0,35.3,4.6,36.6,42.9v59.8c.2,5.6,1.5,6.3,9.5,6.3v1.5h-20.4v-4.6c-20.6,11.9-63.9,12.4-63.9-21.2s20.8-26.7,36.2-31.2c16.5-5,28-10.2,26.9-25.6-2.2-16.9-8.5-25.8-24.9-25.8s-18.2,8.5-19.5,16.3h-14.5c0-13.9,18.6-18.4,34-18.4ZM673.6,420.6v-55.5l-.2-9.3c-3.5,9.8-14.1,13.2-27.1,17.1-16.5,5-24.1,13.2-24.1,29,0,29.9,33.6,29.7,51.4,18.6Z"/>
        <path class="cls-5" d="M192.7,624.8v-121.8c0-13.2-.9-14.1-10-14.1v-.9h27.7c21.7.7,34.9,10.2,34.9,28.2s-8.2,21.7-23.8,23.8c37.7,1.5,50.9,26,50.9,51.8s-13.4,47.7-52.7,47.9h-37.1v-.9c9.1,0,10-.9,10-14.1ZM203.5,540h6.7c23-.7,23-13,23-24.5s-1.7-24.9-23.8-25.4h-5.9v49.8ZM203.7,637.5h16c29,0,38.6-15.8,39.4-43.8.2-10.8,2.6-50.7-40.3-51.6h-15.4l.2,95.4Z"/>
        <path class="cls-5" d="M278.9,639.9v-1.3c5.6,0,7.8.2,9.5-1.7v-133.7c0-14.3-1.1-13.9-11.7-13.9v-1.3l13.4.2h8.9v148.9c1.7,2,3.9,1.7,9.5,1.7v1.3l-13.4-.2-6.7-.2-9.5.2Z"/>
        <path class="cls-5" d="M308.6,638.4c8,0,9.3.6,9.5-5.2v-86.9c-.9-13.7-1.1-13.9-11.7-13.9v-1.3l13.4.2h8.9v93.2c.2,15.6-.2,14.1,10.4,14.1v1.1h-30.6v-1.3ZM322.3,485.2c4.6,0,8.2,3.7,8.2,8.5s-3.7,8.2-8.2,8.2-8.5-3.7-8.5-8.2,3.7-8.5,8.5-8.5Z"/>
        <path class="cls-5" d="M423,547.8h-11.1c0-11.1-11.3-16.9-30.1-16.9s-28.8,6.9-28.8,18.6c0,26.2,73.7,30.6,73.7,64.1s-22.5,28.4-44.9,28.2c-24.1-.2-44.9-7.4-44.9-20.2h13.2c0,11.9,15.2,18,31.6,18s35.3-6.5,35.3-19.3c0-30.3-75.2-34.2-75.2-65.4s16-26.4,39.9-26.2c22.3.2,41.2,6.9,41.2,19.1Z"/>
        <path class="cls-5" d="M517.1,547.8h-11.1c0-11.1-11.3-16.9-30.1-16.9s-28.8,6.9-28.8,18.6c0,26.2,73.7,30.6,73.7,64.1s-22.5,28.4-44.9,28.2c-24.1-.2-44.9-7.4-44.9-20.2h13.2c0,11.9,15.2,18,31.6,18s35.3-6.5,35.3-19.3c0-30.3-75.2-34.2-75.2-65.4s16-26.4,39.9-26.2c22.3.2,41.2,6.9,41.2,19.1Z"/>
      </g>
    </g>
  </g>
</svg>